{
	"patcher" : 	{
		"fileversion" : 1,
		"appversion" : 		{
			"major" : 8,
			"minor" : 2,
			"revision" : 1,
			"architecture" : "x64",
			"modernui" : 1
		}
,
		"classnamespace" : "box",
		"rect" : [ 1654.0, 651.0, 299.0, 482.0 ],
		"bglocked" : 0,
		"openinpresentation" : 0,
		"default_fontsize" : 12.0,
		"default_fontface" : 0,
		"default_fontname" : "Lato",
		"gridonopen" : 1,
		"gridsize" : [ 10.0, 10.0 ],
		"gridsnaponopen" : 1,
		"objectsnaponopen" : 1,
		"statusbarvisible" : 2,
		"toolbarvisible" : 1,
		"lefttoolbarpinned" : 2,
		"toptoolbarpinned" : 2,
		"righttoolbarpinned" : 2,
		"bottomtoolbarpinned" : 2,
		"toolbars_unpinned_last_save" : 15,
		"tallnewobj" : 0,
		"boxanimatetime" : 200,
		"enablehscroll" : 1,
		"enablevscroll" : 1,
		"devicewidth" : 0.0,
		"description" : "",
		"digest" : "",
		"tags" : "",
		"style" : "",
		"subpatcher_template" : "[ M ] Systems",
		"assistshowspatchername" : 0,
		"boxes" : [ 			{
				"box" : 				{
					"comment" : "material",
					"id" : "obj-10",
					"index" : 0,
					"maxclass" : "inlet",
					"numinlets" : 0,
					"numoutlets" : 1,
					"outlettype" : [ "" ],
					"patching_rect" : [ 264.0, 354.0, 30.0, 30.0 ]
				}

			}
, 			{
				"box" : 				{
					"id" : "obj-4",
					"maxclass" : "newobj",
					"numinlets" : 8,
					"numoutlets" : 2,
					"outlettype" : [ "", "" ],
					"patching_rect" : [ 86.0, 395.0, 201.0, 23.0 ],
					"text" : "jit.gl.material @heightmap_mode vtf"
				}

			}
, 			{
				"box" : 				{
					"comment" : "mesh",
					"id" : "obj-2",
					"index" : 0,
					"maxclass" : "inlet",
					"numinlets" : 0,
					"numoutlets" : 1,
					"outlettype" : [ "" ],
					"patching_rect" : [ 251.0, 329.0, 30.0, 30.0 ]
				}

			}
, 			{
				"box" : 				{
					"comment" : "Variable (d)",
					"id" : "obj-26",
					"index" : 0,
					"maxclass" : "inlet",
					"numinlets" : 0,
					"numoutlets" : 1,
					"outlettype" : [ "" ],
					"patching_rect" : [ 238.0, 215.0, 30.0, 30.0 ]
				}

			}
, 			{
				"box" : 				{
					"comment" : "Variable (c)",
					"id" : "obj-25",
					"index" : 0,
					"maxclass" : "inlet",
					"numinlets" : 0,
					"numoutlets" : 1,
					"outlettype" : [ "" ],
					"patching_rect" : [ 199.0, 215.0, 30.0, 30.0 ]
				}

			}
, 			{
				"box" : 				{
					"comment" : "Variable (b)",
					"id" : "obj-24",
					"index" : 0,
					"maxclass" : "inlet",
					"numinlets" : 0,
					"numoutlets" : 1,
					"outlettype" : [ "" ],
					"patching_rect" : [ 161.5, 215.0, 30.0, 30.0 ]
				}

			}
, 			{
				"box" : 				{
					"comment" : "Variable (a)",
					"id" : "obj-23",
					"index" : 0,
					"maxclass" : "inlet",
					"numinlets" : 0,
					"numoutlets" : 1,
					"outlettype" : [ "" ],
					"patching_rect" : [ 124.0, 215.0, 30.0, 30.0 ]
				}

			}
, 			{
				"box" : 				{
					"comment" : "Add metro (input 2D matrix - pos)",
					"id" : "obj-22",
					"index" : 0,
					"maxclass" : "inlet",
					"numinlets" : 0,
					"numoutlets" : 1,
					"outlettype" : [ "" ],
					"patching_rect" : [ 86.0, 96.0, 30.0, 30.0 ]
				}

			}
, 			{
				"box" : 				{
					"comment" : "Test bang (add button, 1 sample) to 2D noise",
					"id" : "obj-21",
					"index" : 0,
					"maxclass" : "inlet",
					"numinlets" : 0,
					"numoutlets" : 1,
					"outlettype" : [ "" ],
					"patching_rect" : [ 54.0, 96.0, 30.0, 30.0 ]
				}

			}
, 			{
				"box" : 				{
					"id" : "obj-20",
					"maxclass" : "message",
					"numinlets" : 2,
					"numoutlets" : 1,
					"outlettype" : [ "" ],
					"patching_rect" : [ 238.0, 254.0, 32.0, 23.0 ],
					"text" : "d $1"
				}

			}
, 			{
				"box" : 				{
					"id" : "obj-19",
					"maxclass" : "message",
					"numinlets" : 2,
					"numoutlets" : 1,
					"outlettype" : [ "" ],
					"patching_rect" : [ 199.0, 254.0, 31.0, 23.0 ],
					"text" : "c $1"
				}

			}
, 			{
				"box" : 				{
					"id" : "obj-18",
					"maxclass" : "message",
					"numinlets" : 2,
					"numoutlets" : 1,
					"outlettype" : [ "" ],
					"patching_rect" : [ 161.5, 254.0, 32.0, 23.0 ],
					"text" : "b $1"
				}

			}
, 			{
				"box" : 				{
					"id" : "obj-17",
					"maxclass" : "message",
					"numinlets" : 2,
					"numoutlets" : 1,
					"outlettype" : [ "" ],
					"patching_rect" : [ 124.0, 254.0, 31.0, 23.0 ],
					"text" : "a $1"
				}

			}
, 			{
				"box" : 				{
					"id" : "obj-9",
					"maxclass" : "newobj",
					"numinlets" : 9,
					"numoutlets" : 2,
					"outlettype" : [ "jit_matrix", "" ],
					"patching_rect" : [ 24.0, 431.0, 251.0, 23.0 ],
					"text" : "jit.gl.mesh @draw_mode points @color 1 1 1 1"
				}

			}
, 			{
				"box" : 				{
					"id" : "obj-8",
					"maxclass" : "newobj",
					"numinlets" : 1,
					"numoutlets" : 2,
					"outlettype" : [ "jit_matrix", "" ],
					"patcher" : 					{
						"fileversion" : 1,
						"appversion" : 						{
							"major" : 8,
							"minor" : 2,
							"revision" : 1,
							"architecture" : "x64",
							"modernui" : 1
						}
,
						"classnamespace" : "jit.gen",
						"rect" : [ 986.0, 416.0, 406.0, 680.0 ],
						"bglocked" : 0,
						"openinpresentation" : 0,
						"default_fontsize" : 12.0,
						"default_fontface" : 0,
						"default_fontname" : "Lato",
						"gridonopen" : 1,
						"gridsize" : [ 10.0, 10.0 ],
						"gridsnaponopen" : 1,
						"objectsnaponopen" : 1,
						"statusbarvisible" : 2,
						"toolbarvisible" : 1,
						"lefttoolbarpinned" : 2,
						"toptoolbarpinned" : 2,
						"righttoolbarpinned" : 2,
						"bottomtoolbarpinned" : 2,
						"toolbars_unpinned_last_save" : 15,
						"tallnewobj" : 0,
						"boxanimatetime" : 200,
						"enablehscroll" : 1,
						"enablevscroll" : 1,
						"devicewidth" : 0.0,
						"description" : "",
						"digest" : "",
						"tags" : "",
						"style" : "",
						"subpatcher_template" : "[ M ] Systems",
						"assistshowspatchername" : 0,
						"boxes" : [ 							{
								"box" : 								{
									"id" : "obj-39",
									"maxclass" : "newobj",
									"numinlets" : 2,
									"numoutlets" : 1,
									"outlettype" : [ "" ],
									"patching_rect" : [ 159.0, 554.0, 29.5, 23.0 ],
									"text" : "+"
								}

							}
, 							{
								"box" : 								{
									"id" : "obj-40",
									"maxclass" : "newobj",
									"numinlets" : 1,
									"numoutlets" : 1,
									"outlettype" : [ "" ],
									"patching_rect" : [ 179.0, 467.0, 22.0, 23.0 ],
									"text" : "* c"
								}

							}
, 							{
								"box" : 								{
									"id" : "obj-41",
									"maxclass" : "newobj",
									"numinlets" : 1,
									"numoutlets" : 1,
									"outlettype" : [ "" ],
									"patching_rect" : [ 241.0, 420.0, 23.0, 23.0 ],
									"text" : "sin"
								}

							}
, 							{
								"box" : 								{
									"id" : "obj-42",
									"maxclass" : "newobj",
									"numinlets" : 1,
									"numoutlets" : 1,
									"outlettype" : [ "" ],
									"patching_rect" : [ 241.0, 374.0, 23.0, 23.0 ],
									"text" : "* a"
								}

							}
, 							{
								"box" : 								{
									"id" : "obj-43",
									"maxclass" : "newobj",
									"numinlets" : 2,
									"numoutlets" : 1,
									"outlettype" : [ "" ],
									"patching_rect" : [ 179.0, 509.0, 29.5, 23.0 ],
									"text" : "+"
								}

							}
, 							{
								"box" : 								{
									"id" : "obj-44",
									"maxclass" : "newobj",
									"numinlets" : 1,
									"numoutlets" : 1,
									"outlettype" : [ "" ],
									"patching_rect" : [ 179.0, 420.0, 26.0, 23.0 ],
									"text" : "cos"
								}

							}
, 							{
								"box" : 								{
									"id" : "obj-45",
									"maxclass" : "newobj",
									"numinlets" : 1,
									"numoutlets" : 1,
									"outlettype" : [ "" ],
									"patching_rect" : [ 179.0, 374.0, 23.0, 23.0 ],
									"text" : "* a"
								}

							}
, 							{
								"box" : 								{
									"id" : "obj-38",
									"maxclass" : "newobj",
									"numinlets" : 2,
									"numoutlets" : 1,
									"outlettype" : [ "" ],
									"patching_rect" : [ 80.0, 592.0, 47.0, 23.0 ],
									"text" : "vec 0 0"
								}

							}
, 							{
								"box" : 								{
									"id" : "obj-36",
									"maxclass" : "newobj",
									"numinlets" : 2,
									"numoutlets" : 1,
									"outlettype" : [ "" ],
									"patching_rect" : [ 35.0, 554.0, 29.5, 23.0 ],
									"text" : "+"
								}

							}
, 							{
								"box" : 								{
									"id" : "obj-35",
									"maxclass" : "newobj",
									"numinlets" : 1,
									"numoutlets" : 1,
									"outlettype" : [ "" ],
									"patching_rect" : [ 55.0, 467.0, 22.0, 23.0 ],
									"text" : "* c"
								}

							}
, 							{
								"box" : 								{
									"id" : "obj-33",
									"maxclass" : "newobj",
									"numinlets" : 1,
									"numoutlets" : 1,
									"outlettype" : [ "" ],
									"patching_rect" : [ 117.0, 420.0, 23.0, 23.0 ],
									"text" : "sin"
								}

							}
, 							{
								"box" : 								{
									"id" : "obj-34",
									"maxclass" : "newobj",
									"numinlets" : 1,
									"numoutlets" : 1,
									"outlettype" : [ "" ],
									"patching_rect" : [ 117.0, 374.0, 23.0, 23.0 ],
									"text" : "* a"
								}

							}
, 							{
								"box" : 								{
									"id" : "obj-32",
									"maxclass" : "newobj",
									"numinlets" : 2,
									"numoutlets" : 1,
									"outlettype" : [ "" ],
									"patching_rect" : [ 55.0, 509.0, 29.5, 23.0 ],
									"text" : "+"
								}

							}
, 							{
								"box" : 								{
									"id" : "obj-31",
									"maxclass" : "newobj",
									"numinlets" : 1,
									"numoutlets" : 1,
									"outlettype" : [ "" ],
									"patching_rect" : [ 55.0, 420.0, 26.0, 23.0 ],
									"text" : "cos"
								}

							}
, 							{
								"box" : 								{
									"id" : "obj-30",
									"maxclass" : "newobj",
									"numinlets" : 1,
									"numoutlets" : 1,
									"outlettype" : [ "" ],
									"patching_rect" : [ 55.0, 374.0, 23.0, 23.0 ],
									"text" : "* a"
								}

							}
, 							{
								"box" : 								{
									"bgcolor" : [ 0.305882352941176, 0.337254901960784, 0.345098039215686, 1.0 ],
									"fontface" : 1,
									"fontname" : "Lato Regular",
									"fontsize" : 14.0,
									"id" : "obj-37",
									"maxclass" : "comment",
									"numinlets" : 1,
									"numoutlets" : 0,
									"patching_rect" : [ 28.0, 30.0, 137.0, 23.0 ],
									"text" : "Clifford Attractors",
									"textcolor" : [ 1.0, 1.0, 1.0, 1.0 ]
								}

							}
, 							{
								"box" : 								{
									"fontsize" : 9.0,
									"id" : "obj-25",
									"maxclass" : "comment",
									"numinlets" : 1,
									"numoutlets" : 0,
									"patching_rect" : [ 248.0, 137.0, 17.0, 17.0 ],
									"text" : "n"
								}

							}
, 							{
								"box" : 								{
									"fontsize" : 9.0,
									"id" : "obj-26",
									"maxclass" : "comment",
									"numinlets" : 1,
									"numoutlets" : 0,
									"patching_rect" : [ 179.0, 137.0, 17.0, 17.0 ],
									"text" : "n"
								}

							}
, 							{
								"box" : 								{
									"fontsize" : 9.0,
									"id" : "obj-27",
									"maxclass" : "comment",
									"numinlets" : 1,
									"numoutlets" : 0,
									"patching_rect" : [ 118.0, 137.0, 26.0, 17.0 ],
									"text" : "n+1"
								}

							}
, 							{
								"box" : 								{
									"id" : "obj-28",
									"maxclass" : "comment",
									"numinlets" : 1,
									"numoutlets" : 0,
									"patching_rect" : [ 111.0, 130.0, 176.0, 21.0 ],
									"text" : "y      = sin(b x  ) + d cos(b x  )"
								}

							}
, 							{
								"box" : 								{
									"fontsize" : 9.0,
									"id" : "obj-24",
									"maxclass" : "comment",
									"numinlets" : 1,
									"numoutlets" : 0,
									"patching_rect" : [ 245.0, 107.0, 17.0, 17.0 ],
									"text" : "n"
								}

							}
, 							{
								"box" : 								{
									"fontsize" : 9.0,
									"id" : "obj-23",
									"maxclass" : "comment",
									"numinlets" : 1,
									"numoutlets" : 0,
									"patching_rect" : [ 177.0, 107.0, 17.0, 17.0 ],
									"text" : "n"
								}

							}
, 							{
								"box" : 								{
									"fontsize" : 9.0,
									"id" : "obj-22",
									"maxclass" : "comment",
									"numinlets" : 1,
									"numoutlets" : 0,
									"patching_rect" : [ 118.0, 107.0, 26.0, 17.0 ],
									"text" : "n+1"
								}

							}
, 							{
								"box" : 								{
									"id" : "obj-20",
									"maxclass" : "comment",
									"numinlets" : 1,
									"numoutlets" : 0,
									"patching_rect" : [ 111.0, 100.0, 176.0, 21.0 ],
									"text" : "x      = sin(a y  ) + c cos(a x  )"
								}

							}
, 							{
								"box" : 								{
									"id" : "obj-15",
									"maxclass" : "newobj",
									"numinlets" : 0,
									"numoutlets" : 1,
									"outlettype" : [ "" ],
									"patching_rect" : [ 295.0, 281.0, 75.0, 23.0 ],
									"text" : "param d -1.7"
								}

							}
, 							{
								"box" : 								{
									"id" : "obj-16",
									"maxclass" : "newobj",
									"numinlets" : 0,
									"numoutlets" : 1,
									"outlettype" : [ "" ],
									"patching_rect" : [ 207.0, 281.0, 74.0, 23.0 ],
									"text" : "param c -1.7"
								}

							}
, 							{
								"box" : 								{
									"id" : "obj-14",
									"maxclass" : "newobj",
									"numinlets" : 0,
									"numoutlets" : 1,
									"outlettype" : [ "" ],
									"patching_rect" : [ 295.0, 241.0, 75.0, 23.0 ],
									"text" : "param b -1.4"
								}

							}
, 							{
								"box" : 								{
									"id" : "obj-13",
									"maxclass" : "newobj",
									"numinlets" : 0,
									"numoutlets" : 1,
									"outlettype" : [ "" ],
									"patching_rect" : [ 207.0, 241.0, 75.0, 23.0 ],
									"text" : "param a -1.4"
								}

							}
, 							{
								"box" : 								{
									"id" : "obj-10",
									"linecount" : 7,
									"maxclass" : "comment",
									"numinlets" : 1,
									"numoutlets" : 0,
									"patching_rect" : [ 35.0, 77.0, 335.0, 107.0 ],
									"text" : "Definition\n\n\n\n\n\nwhere a, b, c, d are variables that define each attractor.",
									"textcolor" : [ 0.572549019607843, 0.603921568627451, 0.643137254901961, 1.0 ]
								}

							}
, 							{
								"box" : 								{
									"id" : "obj-8",
									"maxclass" : "comment",
									"numinlets" : 1,
									"numoutlets" : 0,
									"patching_rect" : [ 35.0, 187.0, 216.0, 21.0 ],
									"text" : "http://paulbourke.net/fractals/clifford/",
									"textcolor" : [ 0.470588235294118, 0.494117647058824, 0.525490196078431, 1.0 ]
								}

							}
, 							{
								"box" : 								{
									"id" : "obj-6",
									"maxclass" : "newobj",
									"numinlets" : 1,
									"numoutlets" : 1,
									"outlettype" : [ "" ],
									"patching_rect" : [ 117.0, 326.0, 40.0, 23.0 ],
									"text" : "swiz y"
								}

							}
, 							{
								"box" : 								{
									"id" : "obj-5",
									"maxclass" : "newobj",
									"numinlets" : 1,
									"numoutlets" : 1,
									"outlettype" : [ "" ],
									"patching_rect" : [ 55.0, 326.0, 40.0, 23.0 ],
									"text" : "swiz x"
								}

							}
, 							{
								"box" : 								{
									"id" : "obj-1",
									"maxclass" : "newobj",
									"numinlets" : 0,
									"numoutlets" : 1,
									"outlettype" : [ "" ],
									"patching_rect" : [ 35.0, 241.0, 28.0, 23.0 ],
									"text" : "in 1"
								}

							}
, 							{
								"box" : 								{
									"id" : "obj-4",
									"maxclass" : "newobj",
									"numinlets" : 1,
									"numoutlets" : 0,
									"patching_rect" : [ 80.0, 630.0, 36.0, 23.0 ],
									"text" : "out 1"
								}

							}
, 							{
								"box" : 								{
									"angle" : 270.0,
									"grad1" : [ 0.301961, 0.301961, 0.301961, 1 ],
									"grad2" : [ 0.2, 0.2, 0.2, 1 ],
									"id" : "obj-29",
									"maxclass" : "panel",
									"mode" : 1,
									"numinlets" : 1,
									"numoutlets" : 0,
									"patching_rect" : [ 28.0, 73.0, 353.0, 141.0 ],
									"proportion" : 0.5,
									"rounded" : 0
								}

							}
 ],
						"lines" : [ 							{
								"patchline" : 								{
									"destination" : [ "obj-5", 0 ],
									"order" : 1,
									"source" : [ "obj-1", 0 ]
								}

							}
, 							{
								"patchline" : 								{
									"destination" : [ "obj-6", 0 ],
									"order" : 0,
									"source" : [ "obj-1", 0 ]
								}

							}
, 							{
								"patchline" : 								{
									"destination" : [ "obj-31", 0 ],
									"source" : [ "obj-30", 0 ]
								}

							}
, 							{
								"patchline" : 								{
									"destination" : [ "obj-35", 0 ],
									"source" : [ "obj-31", 0 ]
								}

							}
, 							{
								"patchline" : 								{
									"destination" : [ "obj-36", 1 ],
									"source" : [ "obj-32", 0 ]
								}

							}
, 							{
								"patchline" : 								{
									"destination" : [ "obj-32", 1 ],
									"source" : [ "obj-33", 0 ]
								}

							}
, 							{
								"patchline" : 								{
									"destination" : [ "obj-33", 0 ],
									"source" : [ "obj-34", 0 ]
								}

							}
, 							{
								"patchline" : 								{
									"destination" : [ "obj-32", 0 ],
									"source" : [ "obj-35", 0 ]
								}

							}
, 							{
								"patchline" : 								{
									"destination" : [ "obj-38", 0 ],
									"source" : [ "obj-36", 0 ]
								}

							}
, 							{
								"patchline" : 								{
									"destination" : [ "obj-4", 0 ],
									"source" : [ "obj-38", 0 ]
								}

							}
, 							{
								"patchline" : 								{
									"destination" : [ "obj-38", 1 ],
									"source" : [ "obj-39", 0 ]
								}

							}
, 							{
								"patchline" : 								{
									"destination" : [ "obj-43", 0 ],
									"source" : [ "obj-40", 0 ]
								}

							}
, 							{
								"patchline" : 								{
									"destination" : [ "obj-43", 1 ],
									"source" : [ "obj-41", 0 ]
								}

							}
, 							{
								"patchline" : 								{
									"destination" : [ "obj-41", 0 ],
									"source" : [ "obj-42", 0 ]
								}

							}
, 							{
								"patchline" : 								{
									"destination" : [ "obj-39", 1 ],
									"source" : [ "obj-43", 0 ]
								}

							}
, 							{
								"patchline" : 								{
									"destination" : [ "obj-40", 0 ],
									"source" : [ "obj-44", 0 ]
								}

							}
, 							{
								"patchline" : 								{
									"destination" : [ "obj-44", 0 ],
									"source" : [ "obj-45", 0 ]
								}

							}
, 							{
								"patchline" : 								{
									"destination" : [ "obj-30", 0 ],
									"order" : 1,
									"source" : [ "obj-5", 0 ]
								}

							}
, 							{
								"patchline" : 								{
									"destination" : [ "obj-36", 0 ],
									"order" : 2,
									"source" : [ "obj-5", 0 ]
								}

							}
, 							{
								"patchline" : 								{
									"destination" : [ "obj-42", 0 ],
									"order" : 0,
									"source" : [ "obj-5", 0 ]
								}

							}
, 							{
								"patchline" : 								{
									"destination" : [ "obj-34", 0 ],
									"order" : 2,
									"source" : [ "obj-6", 0 ]
								}

							}
, 							{
								"patchline" : 								{
									"destination" : [ "obj-39", 0 ],
									"order" : 1,
									"source" : [ "obj-6", 0 ]
								}

							}
, 							{
								"patchline" : 								{
									"destination" : [ "obj-45", 0 ],
									"order" : 0,
									"source" : [ "obj-6", 0 ]
								}

							}
 ],
						"boxgroups" : [ 							{
								"boxes" : [ "obj-20", "obj-24", "obj-23", "obj-22" ]
							}
, 							{
								"boxes" : [ "obj-28", "obj-25", "obj-26", "obj-27" ]
							}
 ],
						"styles" : [ 							{
								"name" : "AudioStatus_Menu",
								"default" : 								{
									"bgfillcolor" : 									{
										"type" : "color",
										"color" : [ 0.294118, 0.313726, 0.337255, 1 ],
										"color1" : [ 0.454902, 0.462745, 0.482353, 0.0 ],
										"color2" : [ 0.290196, 0.309804, 0.301961, 1.0 ],
										"angle" : 270.0,
										"proportion" : 0.39,
										"autogradient" : 0
									}

								}
,
								"parentstyle" : "",
								"multi" : 0
							}
, 							{
								"name" : "Jamoma_highlighted_orange",
								"default" : 								{
									"accentcolor" : [ 1.0, 0.5, 0.0, 1.0 ]
								}
,
								"parentstyle" : "",
								"multi" : 0
							}
, 							{
								"name" : "dvnt2",
								"default" : 								{
									"bgcolor" : [ 1.0, 1.0, 1.0, 1.0 ],
									"textcolor_inverse" : [ 0.0, 0.0, 0.0, 1.0 ],
									"color" : [ 0.0, 0.0, 0.0, 1.0 ],
									"elementcolor" : [ 0.681193, 0.750541, 0.758255, 1.0 ]
								}
,
								"parentstyle" : "",
								"multi" : 0
							}
, 							{
								"name" : "dvnt3",
								"parentstyle" : "",
								"multi" : 0
							}
, 							{
								"name" : "jpatcher001",
								"parentstyle" : "",
								"multi" : 0
							}
, 							{
								"name" : "myrDict",
								"default" : 								{
									"accentcolor" : [ 0.011765, 0.396078, 0.752941, 1.0 ]
								}
,
								"parentstyle" : "",
								"multi" : 0
							}
, 							{
								"name" : "myrInit",
								"default" : 								{
									"accentcolor" : [ 0.0, 1.0, 0.501961, 1.0 ]
								}
,
								"parentstyle" : "",
								"multi" : 0
							}
, 							{
								"name" : "myrLiveObject",
								"default" : 								{
									"accentcolor" : [ 0.960784, 0.827451, 0.156863, 1.0 ]
								}
,
								"parentstyle" : "",
								"multi" : 0
							}
, 							{
								"name" : "myrPattr",
								"default" : 								{
									"fontface" : [ 0 ],
									"fontsize" : [ 12.0 ],
									"accentcolor" : [ 0.945098, 0.913725, 0.407843, 1.0 ],
									"fontname" : [ "Arial" ]
								}
,
								"parentstyle" : "",
								"multi" : 0
							}
, 							{
								"name" : "myrReceive",
								"default" : 								{
									"accentcolor" : [ 0.701961, 0.415686, 0.886275, 1.0 ]
								}
,
								"parentstyle" : "",
								"multi" : 0
							}
, 							{
								"name" : "myrSend",
								"default" : 								{
									"accentcolor" : [ 0.466667, 0.254902, 0.607843, 1.0 ]
								}
,
								"parentstyle" : "",
								"multi" : 0
							}
, 							{
								"name" : "myrSubpatch",
								"default" : 								{
									"fontsize" : [ 12.0 ],
									"accentcolor" : [ 0.082353, 0.431373, 0.411765, 1.0 ],
									"fontname" : [ "Arial" ]
								}
,
								"parentstyle" : "",
								"multi" : 0
							}
, 							{
								"name" : "myrValue",
								"default" : 								{
									"accentcolor" : [ 0.317647, 0.654902, 0.976471, 1.0 ]
								}
,
								"parentstyle" : "",
								"multi" : 0
							}
, 							{
								"name" : "newobjBlue-1",
								"default" : 								{
									"accentcolor" : [ 0.317647, 0.654902, 0.976471, 1.0 ]
								}
,
								"parentstyle" : "",
								"multi" : 0
							}
, 							{
								"name" : "newobjGreen-1",
								"default" : 								{
									"accentcolor" : [ 0.0, 0.533333, 0.168627, 1.0 ]
								}
,
								"parentstyle" : "",
								"multi" : 0
							}
, 							{
								"name" : "newobjYellow-1",
								"default" : 								{
									"fontsize" : [ 12.059008 ],
									"accentcolor" : [ 0.82517, 0.78181, 0.059545, 1.0 ]
								}
,
								"parentstyle" : "",
								"multi" : 0
							}
 ],
						"default_bgcolor" : [ 0.12156862745098, 0.125490196078431, 0.129411764705882, 1.0 ],
						"accentcolor" : [ 0.12156862745098, 0.125490196078431, 0.129411764705882, 1.0 ],
						"selectioncolor" : [ 0.0, 0.0, 0.0, 1.0 ],
						"textcolor" : [ 0.67843137254902, 0.713725490196078, 0.76078431372549, 1.0 ],
						"textcolor_inverse" : [ 0.67843137254902, 0.713725490196078, 0.76078431372549, 1.0 ],
						"patchlinecolor" : [ 0.0, 0.0, 0.0, 1.0 ],
						"bgcolor" : [ 0.062745098039216, 0.066666666666667, 0.070588235294118, 1.0 ],
						"editing_bgcolor" : [ 0.176470588235294, 0.184313725490196, 0.196078431372549, 1.0 ]
					}
,
					"patching_rect" : [ 24.0, 309.0, 165.0, 23.0 ],
					"text" : "jit.gen @title clifford-equation"
				}

			}
, 			{
				"box" : 				{
					"id" : "obj-7",
					"maxclass" : "newobj",
					"numinlets" : 1,
					"numoutlets" : 2,
					"outlettype" : [ "jit_matrix", "" ],
					"patching_rect" : [ 60.0, 354.0, 175.0, 23.0 ],
					"text" : "jit.matrix pos 2 float32 100 100"
				}

			}
, 			{
				"box" : 				{
					"id" : "obj-6",
					"maxclass" : "newobj",
					"numinlets" : 1,
					"numoutlets" : 2,
					"outlettype" : [ "jit_matrix", "" ],
					"patching_rect" : [ 24.0, 177.0, 175.0, 23.0 ],
					"text" : "jit.matrix pos 2 float32 100 100"
				}

			}
, 			{
				"box" : 				{
					"id" : "obj-5",
					"maxclass" : "button",
					"numinlets" : 1,
					"numoutlets" : 1,
					"outlettype" : [ "bang" ],
					"parameter_enable" : 0,
					"patching_rect" : [ 24.0, 99.0, 24.0, 24.0 ]
				}

			}
, 			{
				"box" : 				{
					"id" : "obj-3",
					"linecount" : 3,
					"maxclass" : "comment",
					"numinlets" : 1,
					"numoutlets" : 0,
					"patching_rect" : [ 24.0, 23.0, 257.0, 50.0 ],
					"text" : "The Clifford Attractor is a two dimensional attractor. Therefore it requires two planes of noise to set an initial position."
				}

			}
, 			{
				"box" : 				{
					"id" : "obj-1",
					"maxclass" : "newobj",
					"numinlets" : 1,
					"numoutlets" : 2,
					"outlettype" : [ "jit_matrix", "" ],
					"patching_rect" : [ 24.0, 132.0, 148.0, 23.0 ],
					"text" : "jit.noise 2 float32 100 100"
				}

			}
 ],
		"lines" : [ 			{
				"patchline" : 				{
					"destination" : [ "obj-6", 0 ],
					"source" : [ "obj-1", 0 ]
				}

			}
, 			{
				"patchline" : 				{
					"destination" : [ "obj-4", 0 ],
					"source" : [ "obj-10", 0 ]
				}

			}
, 			{
				"patchline" : 				{
					"destination" : [ "obj-8", 0 ],
					"source" : [ "obj-17", 0 ]
				}

			}
, 			{
				"patchline" : 				{
					"destination" : [ "obj-8", 0 ],
					"source" : [ "obj-18", 0 ]
				}

			}
, 			{
				"patchline" : 				{
					"destination" : [ "obj-8", 0 ],
					"source" : [ "obj-19", 0 ]
				}

			}
, 			{
				"patchline" : 				{
					"destination" : [ "obj-9", 0 ],
					"source" : [ "obj-2", 0 ]
				}

			}
, 			{
				"patchline" : 				{
					"destination" : [ "obj-8", 0 ],
					"source" : [ "obj-20", 0 ]
				}

			}
, 			{
				"patchline" : 				{
					"destination" : [ "obj-1", 0 ],
					"source" : [ "obj-21", 0 ]
				}

			}
, 			{
				"patchline" : 				{
					"destination" : [ "obj-6", 0 ],
					"source" : [ "obj-22", 0 ]
				}

			}
, 			{
				"patchline" : 				{
					"destination" : [ "obj-17", 0 ],
					"source" : [ "obj-23", 0 ]
				}

			}
, 			{
				"patchline" : 				{
					"destination" : [ "obj-18", 0 ],
					"source" : [ "obj-24", 0 ]
				}

			}
, 			{
				"patchline" : 				{
					"destination" : [ "obj-19", 0 ],
					"source" : [ "obj-25", 0 ]
				}

			}
, 			{
				"patchline" : 				{
					"destination" : [ "obj-20", 0 ],
					"source" : [ "obj-26", 0 ]
				}

			}
, 			{
				"patchline" : 				{
					"destination" : [ "obj-9", 0 ],
					"source" : [ "obj-4", 0 ]
				}

			}
, 			{
				"patchline" : 				{
					"destination" : [ "obj-1", 0 ],
					"source" : [ "obj-5", 0 ]
				}

			}
, 			{
				"patchline" : 				{
					"destination" : [ "obj-8", 0 ],
					"source" : [ "obj-6", 0 ]
				}

			}
, 			{
				"patchline" : 				{
					"destination" : [ "obj-7", 0 ],
					"order" : 0,
					"source" : [ "obj-8", 0 ]
				}

			}
, 			{
				"patchline" : 				{
					"destination" : [ "obj-9", 0 ],
					"order" : 1,
					"source" : [ "obj-8", 0 ]
				}

			}
 ],
		"dependency_cache" : [  ],
		"autosave" : 0,
		"styles" : [ 			{
				"name" : "AudioStatus_Menu",
				"default" : 				{
					"bgfillcolor" : 					{
						"type" : "color",
						"color" : [ 0.294118, 0.313726, 0.337255, 1 ],
						"color1" : [ 0.454902, 0.462745, 0.482353, 0.0 ],
						"color2" : [ 0.290196, 0.309804, 0.301961, 1.0 ],
						"angle" : 270.0,
						"proportion" : 0.39,
						"autogradient" : 0
					}

				}
,
				"parentstyle" : "",
				"multi" : 0
			}
, 			{
				"name" : "Jamoma_highlighted_orange",
				"default" : 				{
					"accentcolor" : [ 1.0, 0.5, 0.0, 1.0 ]
				}
,
				"parentstyle" : "",
				"multi" : 0
			}
, 			{
				"name" : "dvnt2",
				"default" : 				{
					"bgcolor" : [ 1.0, 1.0, 1.0, 1.0 ],
					"textcolor_inverse" : [ 0.0, 0.0, 0.0, 1.0 ],
					"color" : [ 0.0, 0.0, 0.0, 1.0 ],
					"elementcolor" : [ 0.681193, 0.750541, 0.758255, 1.0 ]
				}
,
				"parentstyle" : "",
				"multi" : 0
			}
, 			{
				"name" : "dvnt3",
				"parentstyle" : "",
				"multi" : 0
			}
, 			{
				"name" : "jpatcher001",
				"parentstyle" : "",
				"multi" : 0
			}
, 			{
				"name" : "myrDict",
				"default" : 				{
					"accentcolor" : [ 0.011765, 0.396078, 0.752941, 1.0 ]
				}
,
				"parentstyle" : "",
				"multi" : 0
			}
, 			{
				"name" : "myrInit",
				"default" : 				{
					"accentcolor" : [ 0.0, 1.0, 0.501961, 1.0 ]
				}
,
				"parentstyle" : "",
				"multi" : 0
			}
, 			{
				"name" : "myrLiveObject",
				"default" : 				{
					"accentcolor" : [ 0.960784, 0.827451, 0.156863, 1.0 ]
				}
,
				"parentstyle" : "",
				"multi" : 0
			}
, 			{
				"name" : "myrPattr",
				"default" : 				{
					"fontface" : [ 0 ],
					"fontsize" : [ 12.0 ],
					"accentcolor" : [ 0.945098, 0.913725, 0.407843, 1.0 ],
					"fontname" : [ "Arial" ]
				}
,
				"parentstyle" : "",
				"multi" : 0
			}
, 			{
				"name" : "myrReceive",
				"default" : 				{
					"accentcolor" : [ 0.701961, 0.415686, 0.886275, 1.0 ]
				}
,
				"parentstyle" : "",
				"multi" : 0
			}
, 			{
				"name" : "myrSend",
				"default" : 				{
					"accentcolor" : [ 0.466667, 0.254902, 0.607843, 1.0 ]
				}
,
				"parentstyle" : "",
				"multi" : 0
			}
, 			{
				"name" : "myrSubpatch",
				"default" : 				{
					"fontsize" : [ 12.0 ],
					"accentcolor" : [ 0.082353, 0.431373, 0.411765, 1.0 ],
					"fontname" : [ "Arial" ]
				}
,
				"parentstyle" : "",
				"multi" : 0
			}
, 			{
				"name" : "myrValue",
				"default" : 				{
					"accentcolor" : [ 0.317647, 0.654902, 0.976471, 1.0 ]
				}
,
				"parentstyle" : "",
				"multi" : 0
			}
, 			{
				"name" : "newobjBlue-1",
				"default" : 				{
					"accentcolor" : [ 0.317647, 0.654902, 0.976471, 1.0 ]
				}
,
				"parentstyle" : "",
				"multi" : 0
			}
, 			{
				"name" : "newobjGreen-1",
				"default" : 				{
					"accentcolor" : [ 0.0, 0.533333, 0.168627, 1.0 ]
				}
,
				"parentstyle" : "",
				"multi" : 0
			}
, 			{
				"name" : "newobjYellow-1",
				"default" : 				{
					"fontsize" : [ 12.059008 ],
					"accentcolor" : [ 0.82517, 0.78181, 0.059545, 1.0 ]
				}
,
				"parentstyle" : "",
				"multi" : 0
			}
 ],
		"default_bgcolor" : [ 0.12156862745098, 0.125490196078431, 0.129411764705882, 1.0 ],
		"accentcolor" : [ 0.12156862745098, 0.125490196078431, 0.129411764705882, 1.0 ],
		"selectioncolor" : [ 0.0, 0.0, 0.0, 1.0 ],
		"textcolor" : [ 0.67843137254902, 0.713725490196078, 0.76078431372549, 1.0 ],
		"textcolor_inverse" : [ 0.67843137254902, 0.713725490196078, 0.76078431372549, 1.0 ],
		"patchlinecolor" : [ 0.0, 0.0, 0.0, 1.0 ],
		"bgcolor" : [ 0.062745098039216, 0.066666666666667, 0.070588235294118, 1.0 ],
		"editing_bgcolor" : [ 0.176470588235294, 0.184313725490196, 0.196078431372549, 1.0 ]
	}

}
