{
	"patcher" : 	{
		"fileversion" : 1,
		"appversion" : 		{
			"major" : 8,
			"minor" : 2,
			"revision" : 1,
			"architecture" : "x64",
			"modernui" : 1
		}
,
		"classnamespace" : "box",
		"rect" : [ 251.0, 116.0, 907.0, 329.0 ],
		"bglocked" : 0,
		"openinpresentation" : 0,
		"default_fontsize" : 12.0,
		"default_fontface" : 0,
		"default_fontname" : "Lato",
		"gridonopen" : 1,
		"gridsize" : [ 10.0, 10.0 ],
		"gridsnaponopen" : 1,
		"objectsnaponopen" : 1,
		"statusbarvisible" : 2,
		"toolbarvisible" : 1,
		"lefttoolbarpinned" : 2,
		"toptoolbarpinned" : 2,
		"righttoolbarpinned" : 2,
		"bottomtoolbarpinned" : 2,
		"toolbars_unpinned_last_save" : 15,
		"tallnewobj" : 0,
		"boxanimatetime" : 200,
		"enablehscroll" : 1,
		"enablevscroll" : 1,
		"devicewidth" : 0.0,
		"description" : "",
		"digest" : "",
		"tags" : "",
		"style" : "sigv.js",
		"subpatcher_template" : "sigv.js",
		"assistshowspatchername" : 0,
		"boxes" : [ 			{
				"box" : 				{
					"id" : "obj-18",
					"maxclass" : "newobj",
					"numinlets" : 0,
					"numoutlets" : 1,
					"outlettype" : [ "" ],
					"patching_rect" : [ 825.0, 37.0, 50.0, 23.0 ],
					"text" : "r lzosc-t"
				}

			}
, 			{
				"box" : 				{
					"id" : "obj-17",
					"maxclass" : "newobj",
					"numinlets" : 0,
					"numoutlets" : 1,
					"outlettype" : [ "" ],
					"patching_rect" : [ 759.0, 37.0, 53.0, 23.0 ],
					"text" : "r lzosc-p"
				}

			}
, 			{
				"box" : 				{
					"id" : "obj-27",
					"maxclass" : "newobj",
					"numinlets" : 0,
					"numoutlets" : 1,
					"outlettype" : [ "" ],
					"patching_rect" : [ 694.166666666666629, 37.0, 51.0, 23.0 ],
					"text" : "r lzosc-s"
				}

			}
, 			{
				"box" : 				{
					"id" : "obj-28",
					"maxclass" : "newobj",
					"numinlets" : 0,
					"numoutlets" : 1,
					"outlettype" : [ "" ],
					"patching_rect" : [ 633.0, 37.0, 52.0, 23.0 ],
					"text" : "r lzosc-c"
				}

			}
, 			{
				"box" : 				{
					"id" : "obj-29",
					"maxclass" : "newobj",
					"numinlets" : 0,
					"numoutlets" : 1,
					"outlettype" : [ "" ],
					"patching_rect" : [ 574.0, 37.0, 52.0, 23.0 ],
					"text" : "r lzosc-g"
				}

			}
, 			{
				"box" : 				{
					"id" : "obj-11",
					"maxclass" : "newobj",
					"numinlets" : 1,
					"numoutlets" : 2,
					"outlettype" : [ "", "" ],
					"patching_rect" : [ 446.0, 122.0, 69.0, 23.0 ],
					"text" : "jit.gl.handle"
				}

			}
, 			{
				"box" : 				{
					"id" : "obj-6",
					"maxclass" : "message",
					"numinlets" : 2,
					"numoutlets" : 1,
					"outlettype" : [ "" ],
					"patching_rect" : [ 405.899999999999977, 151.0, 88.0, 23.0 ],
					"text" : "rotatexyz 0 0 0"
				}

			}
, 			{
				"box" : 				{
					"id" : "obj-34",
					"maxclass" : "message",
					"numinlets" : 2,
					"numoutlets" : 1,
					"outlettype" : [ "" ],
					"patching_rect" : [ 380.5, 176.0, 153.0, 23.0 ],
					"text" : "rotatexyz 99.2 -63. -18.2"
				}

			}
, 			{
				"box" : 				{
					"id" : "obj-5",
					"maxclass" : "newobj",
					"numinlets" : 2,
					"numoutlets" : 2,
					"outlettype" : [ "", "" ],
					"patching_rect" : [ 535.5, 146.0, 56.0, 23.0 ],
					"text" : "route div"
				}

			}
, 			{
				"box" : 				{
					"id" : "obj-7",
					"maxclass" : "newobj",
					"numinlets" : 12,
					"numoutlets" : 12,
					"outlettype" : [ "", "", "", "", "", "", "", "", "", "", "", "" ],
					"patching_rect" : [ 504.0, 80.0, 355.0, 23.0 ],
					"text" : "route gs clocker scale period time bfg slide material mesh anim aio"
				}

			}
, 			{
				"box" : 				{
					"id" : "obj-9",
					"maxclass" : "newobj",
					"numinlets" : 2,
					"numoutlets" : 2,
					"outlettype" : [ "", "" ],
					"patching_rect" : [ 504.0, 50.0, 60.0, 23.0 ],
					"text" : "route lpro"
				}

			}
, 			{
				"box" : 				{
					"id" : "obj-4",
					"maxclass" : "newobj",
					"numinlets" : 0,
					"numoutlets" : 0,
					"patcher" : 					{
						"fileversion" : 1,
						"appversion" : 						{
							"major" : 8,
							"minor" : 2,
							"revision" : 1,
							"architecture" : "x64",
							"modernui" : 1
						}
,
						"classnamespace" : "box",
						"rect" : [ 519.0, 187.0, 231.0, 310.0 ],
						"bglocked" : 0,
						"openinpresentation" : 0,
						"default_fontsize" : 12.0,
						"default_fontface" : 0,
						"default_fontname" : "Lato",
						"gridonopen" : 1,
						"gridsize" : [ 10.0, 10.0 ],
						"gridsnaponopen" : 1,
						"objectsnaponopen" : 1,
						"statusbarvisible" : 2,
						"toolbarvisible" : 1,
						"lefttoolbarpinned" : 2,
						"toptoolbarpinned" : 2,
						"righttoolbarpinned" : 2,
						"bottomtoolbarpinned" : 2,
						"toolbars_unpinned_last_save" : 15,
						"tallnewobj" : 0,
						"boxanimatetime" : 200,
						"enablehscroll" : 1,
						"enablevscroll" : 1,
						"devicewidth" : 0.0,
						"description" : "",
						"digest" : "",
						"tags" : "",
						"style" : "sigv.js",
						"subpatcher_template" : "sigv.js",
						"assistshowspatchername" : 0,
						"boxes" : [ 							{
								"box" : 								{
									"id" : "obj-41",
									"maxclass" : "message",
									"numinlets" : 2,
									"numoutlets" : 1,
									"outlettype" : [ "" ],
									"patching_rect" : [ 22.0, 63.0, 44.0, 23.0 ],
									"text" : "layer 4"
								}

							}
, 							{
								"box" : 								{
									"id" : "obj-34",
									"maxclass" : "message",
									"numinlets" : 2,
									"numoutlets" : 1,
									"outlettype" : [ "" ],
									"patching_rect" : [ 50.0, 127.0, 32.0, 23.0 ],
									"text" : "0.08"
								}

							}
, 							{
								"box" : 								{
									"id" : "obj-46",
									"maxclass" : "newobj",
									"numinlets" : 1,
									"numoutlets" : 1,
									"outlettype" : [ "bang" ],
									"patching_rect" : [ 22.0, 30.0, 56.0, 23.0 ],
									"text" : "loadbang"
								}

							}
, 							{
								"box" : 								{
									"id" : "obj-43",
									"maxclass" : "message",
									"numinlets" : 2,
									"numoutlets" : 1,
									"outlettype" : [ "" ],
									"patching_rect" : [ 50.0, 164.0, 86.0, 23.0 ],
									"text" : "scale $1 $1 $1"
								}

							}
, 							{
								"box" : 								{
									"id" : "obj-14",
									"maxclass" : "newobj",
									"numinlets" : 0,
									"numoutlets" : 1,
									"outlettype" : [ "" ],
									"patching_rect" : [ 81.0, 63.0, 55.0, 23.0 ],
									"text" : "r strange"
								}

							}
, 							{
								"box" : 								{
									"id" : "obj-5",
									"maxclass" : "newobj",
									"numinlets" : 1,
									"numoutlets" : 1,
									"outlettype" : [ "" ],
									"patching_rect" : [ 81.0, 97.0, 86.0, 23.0 ],
									"text" : "prepend text ^"
								}

							}
, 							{
								"box" : 								{
									"id" : "obj-6",
									"linecount" : 4,
									"maxclass" : "newobj",
									"numinlets" : 1,
									"numoutlets" : 2,
									"outlettype" : [ "jit_matrix", "" ],
									"patching_rect" : [ 22.0, 207.0, 187.0, 66.0 ],
									"text" : "jit.gl.text monde @color 0.6 0.6 0.6 1 @position 0. -1.5 0. @fontsize 12 @mode 3d @align 1 @layer 1 @scale 0.1 0.1 0.1"
								}

							}
 ],
						"lines" : [ 							{
								"patchline" : 								{
									"destination" : [ "obj-5", 0 ],
									"source" : [ "obj-14", 0 ]
								}

							}
, 							{
								"patchline" : 								{
									"destination" : [ "obj-43", 0 ],
									"source" : [ "obj-34", 0 ]
								}

							}
, 							{
								"patchline" : 								{
									"destination" : [ "obj-6", 0 ],
									"source" : [ "obj-41", 0 ]
								}

							}
, 							{
								"patchline" : 								{
									"destination" : [ "obj-6", 0 ],
									"source" : [ "obj-43", 0 ]
								}

							}
, 							{
								"patchline" : 								{
									"destination" : [ "obj-34", 0 ],
									"order" : 0,
									"source" : [ "obj-46", 0 ]
								}

							}
, 							{
								"patchline" : 								{
									"destination" : [ "obj-41", 0 ],
									"order" : 1,
									"source" : [ "obj-46", 0 ]
								}

							}
, 							{
								"patchline" : 								{
									"destination" : [ "obj-6", 0 ],
									"source" : [ "obj-5", 0 ]
								}

							}
 ],
						"styles" : [ 							{
								"name" : "AudioStatus_Menu",
								"default" : 								{
									"bgfillcolor" : 									{
										"type" : "color",
										"color" : [ 0.294118, 0.313726, 0.337255, 1 ],
										"color1" : [ 0.454902, 0.462745, 0.482353, 0.0 ],
										"color2" : [ 0.290196, 0.309804, 0.301961, 1.0 ],
										"angle" : 270.0,
										"proportion" : 0.39,
										"autogradient" : 0
									}

								}
,
								"parentstyle" : "",
								"multi" : 0
							}
, 							{
								"name" : "Jamoma_highlighted_orange",
								"default" : 								{
									"accentcolor" : [ 1.0, 0.5, 0.0, 1.0 ]
								}
,
								"parentstyle" : "",
								"multi" : 0
							}
, 							{
								"name" : "dvnt2",
								"default" : 								{
									"textcolor_inverse" : [ 0.0, 0.0, 0.0, 1.0 ],
									"elementcolor" : [ 0.681193, 0.750541, 0.758255, 1.0 ],
									"color" : [ 0.0, 0.0, 0.0, 1.0 ],
									"bgcolor" : [ 1.0, 1.0, 1.0, 1.0 ]
								}
,
								"parentstyle" : "",
								"multi" : 0
							}
, 							{
								"name" : "dvnt3",
								"parentstyle" : "",
								"multi" : 0
							}
, 							{
								"name" : "jpatcher001",
								"parentstyle" : "",
								"multi" : 0
							}
, 							{
								"name" : "myrDict",
								"default" : 								{
									"accentcolor" : [ 0.011765, 0.396078, 0.752941, 1.0 ]
								}
,
								"parentstyle" : "",
								"multi" : 0
							}
, 							{
								"name" : "myrInit",
								"default" : 								{
									"accentcolor" : [ 0.0, 1.0, 0.501961, 1.0 ]
								}
,
								"parentstyle" : "",
								"multi" : 0
							}
, 							{
								"name" : "myrLiveObject",
								"default" : 								{
									"accentcolor" : [ 0.960784, 0.827451, 0.156863, 1.0 ]
								}
,
								"parentstyle" : "",
								"multi" : 0
							}
, 							{
								"name" : "myrPattr",
								"default" : 								{
									"fontface" : [ 0 ],
									"fontsize" : [ 12.0 ],
									"accentcolor" : [ 0.945098, 0.913725, 0.407843, 1.0 ],
									"fontname" : [ "Arial" ]
								}
,
								"parentstyle" : "",
								"multi" : 0
							}
, 							{
								"name" : "myrReceive",
								"default" : 								{
									"accentcolor" : [ 0.701961, 0.415686, 0.886275, 1.0 ]
								}
,
								"parentstyle" : "",
								"multi" : 0
							}
, 							{
								"name" : "myrSend",
								"default" : 								{
									"accentcolor" : [ 0.466667, 0.254902, 0.607843, 1.0 ]
								}
,
								"parentstyle" : "",
								"multi" : 0
							}
, 							{
								"name" : "myrSubpatch",
								"default" : 								{
									"fontsize" : [ 12.0 ],
									"accentcolor" : [ 0.082353, 0.431373, 0.411765, 1.0 ],
									"fontname" : [ "Arial" ]
								}
,
								"parentstyle" : "",
								"multi" : 0
							}
, 							{
								"name" : "myrValue",
								"default" : 								{
									"accentcolor" : [ 0.317647, 0.654902, 0.976471, 1.0 ]
								}
,
								"parentstyle" : "",
								"multi" : 0
							}
, 							{
								"name" : "newobjBlue-1",
								"default" : 								{
									"accentcolor" : [ 0.317647, 0.654902, 0.976471, 1.0 ]
								}
,
								"parentstyle" : "",
								"multi" : 0
							}
, 							{
								"name" : "newobjGreen-1",
								"default" : 								{
									"accentcolor" : [ 0.0, 0.533333, 0.168627, 1.0 ]
								}
,
								"parentstyle" : "",
								"multi" : 0
							}
, 							{
								"name" : "newobjYellow-1",
								"default" : 								{
									"fontsize" : [ 12.059008 ],
									"accentcolor" : [ 0.82517, 0.78181, 0.059545, 1.0 ]
								}
,
								"parentstyle" : "",
								"multi" : 0
							}
, 							{
								"name" : "sigv.js",
								"default" : 								{
									"selectioncolor" : [ 0.45281594991684, 0.528640389442444, 0.598021566867828, 1.0 ],
									"textcolor_inverse" : [ 0.67843137254902, 0.713725490196078, 0.76078431372549, 1.0 ],
									"clearcolor" : [ 0.07058823529, 0.1058823529, 0.1647058824, 1.0 ],
									"locked_bgcolor" : [ 0.049247920513153, 0.058372475206852, 0.068464912474155, 1.0 ],
									"bgfillcolor" : 									{
										"type" : "gradient",
										"color1" : [ 0.07799056917429, 0.098447218537331, 0.10713404417038, 1.0 ],
										"color2" : [ 0.07058823529, 0.1058823529, 0.1647058824, 1.0 ],
										"color" : [ 0.2, 0.2, 0.2, 1.0 ]
									}
,
									"textcolor" : [ 0.6, 0.772549019607843, 1.0, 1.0 ],
									"editing_bgcolor" : [ 0.049247920513153, 0.058372475206852, 0.068464912474155, 1.0 ],
									"accentcolor" : [ 0.07799056917429, 0.098447218537331, 0.10713404417038, 1.0 ],
									"patchlinecolor" : [ 0.086274509803922, 0.266666666666667, 0.345098039215686, 1.0 ],
									"elementcolor" : [ 0.57438737154007, 0.665937542915344, 0.915809035301208, 1.0 ],
									"fontname" : [ "Lato" ],
									"color" : [ 0.0, 0.431372549019608, 1.0, 1.0 ],
									"bgcolor" : [ 0.070588235294118, 0.105882352941176, 0.164705882352941, 1.0 ]
								}
,
								"parentstyle" : "",
								"multi" : 0
							}
 ],
						"toolbaradditions" : [ "lessonbrowser" ],
						"default_bgcolor" : [ 0.070588235294118, 0.105882352941176, 0.164705882352941, 1.0 ],
						"color" : [ 0.0, 0.431372549019608, 1.0, 1.0 ],
						"elementcolor" : [ 0.57438737154007, 0.665937542915344, 0.915809035301208, 1.0 ],
						"accentcolor" : [ 0.07799056917429, 0.098447218537331, 0.10713404417038, 1.0 ],
						"selectioncolor" : [ 0.45281594991684, 0.528640389442444, 0.598021566867828, 1.0 ],
						"textcolor" : [ 0.6, 0.772549019607843, 1.0, 1.0 ],
						"textcolor_inverse" : [ 0.67843137254902, 0.713725490196078, 0.76078431372549, 1.0 ],
						"patchlinecolor" : [ 0.086274509803922, 0.266666666666667, 0.345098039215686, 1.0 ],
						"clearcolor" : [ 0.07058823529, 0.1058823529, 0.1647058824, 1.0 ],
						"bgcolor" : [ 0.049247920513153, 0.058372475206852, 0.068464912474155, 1.0 ],
						"editing_bgcolor" : [ 0.049247920513153, 0.058372475206852, 0.068464912474155, 1.0 ],
						"bgfillcolor_type" : "gradient",
						"bgfillcolor_color1" : [ 0.07799056917429, 0.098447218537331, 0.10713404417038, 1.0 ],
						"bgfillcolor_color2" : [ 0.07058823529, 0.1058823529, 0.1647058824, 1.0 ],
						"bgfillcolor_color" : [ 0.2, 0.2, 0.2, 1.0 ]
					}
,
					"patching_rect" : [ 307.0, 45.0, 42.0, 23.0 ],
					"saved_object_attributes" : 					{
						"accentcolor" : [ 0.07799056917429, 0.098447218537331, 0.10713404417038, 1.0 ],
						"bgcolor" : [ 0.070588235294118, 0.105882352941176, 0.164705882352941, 1.0 ],
						"clearcolor" : [ 0.07058823529, 0.1058823529, 0.1647058824, 1.0 ],
						"color" : [ 0.0, 0.431372549019608, 1.0, 1.0 ],
						"description" : "",
						"digest" : "",
						"editing_bgcolor" : [ 0.049247920513153, 0.058372475206852, 0.068464912474155, 1.0 ],
						"elementcolor" : [ 0.57438737154007, 0.665937542915344, 0.915809035301208, 1.0 ],
						"fontname" : "Lato",
						"globalpatchername" : "",
						"locked_bgcolor" : [ 0.049247920513153, 0.058372475206852, 0.068464912474155, 1.0 ],
						"patchlinecolor" : [ 0.086274509803922, 0.266666666666667, 0.345098039215686, 1.0 ],
						"selectioncolor" : [ 0.45281594991684, 0.528640389442444, 0.598021566867828, 1.0 ],
						"style" : "sigv.js",
						"tags" : "",
						"textcolor" : [ 0.6, 0.772549019607843, 1.0, 1.0 ],
						"textcolor_inverse" : [ 0.67843137254902, 0.713725490196078, 0.76078431372549, 1.0 ]
					}
,
					"text" : "p spec"
				}

			}
, 			{
				"box" : 				{
					"id" : "obj-2",
					"maxclass" : "newobj",
					"numinlets" : 1,
					"numoutlets" : 0,
					"patching_rect" : [ 388.0, 122.0, 56.0, 23.0 ],
					"text" : "s strange"
				}

			}
, 			{
				"box" : 				{
					"id" : "obj-3",
					"maxclass" : "button",
					"numinlets" : 1,
					"numoutlets" : 1,
					"outlettype" : [ "bang" ],
					"parameter_enable" : 0,
					"patching_rect" : [ 69.044999999999987, 195.0, 24.0, 24.0 ]
				}

			}
, 			{
				"box" : 				{
					"id" : "obj-1",
					"maxclass" : "newobj",
					"numinlets" : 1,
					"numoutlets" : 0,
					"patching_rect" : [ 27.899999999999977, 272.0, 76.0, 23.0 ],
					"text" : "s lorenz-data"
				}

			}
, 			{
				"box" : 				{
					"id" : "obj-16",
					"int" : 1,
					"maxclass" : "gswitch",
					"numinlets" : 3,
					"numoutlets" : 1,
					"outlettype" : [ "" ],
					"parameter_enable" : 0,
					"patching_rect" : [ 69.044999999999987, 156.0, 41.0, 32.0 ]
				}

			}
, 			{
				"box" : 				{
					"id" : "obj-15",
					"maxclass" : "newobj",
					"numinlets" : 18,
					"numoutlets" : 18,
					"outlettype" : [ "", "", "", "", "", "", "", "", "", "", "", "", "", "", "", "", "", "" ],
					"patching_rect" : [ 28.100000000000023, 80.0, 441.0, 23.0 ],
					"text" : "route sample activate mesh anim material ^ a b c dt val data aio gs reset iso handle"
				}

			}
, 			{
				"box" : 				{
					"id" : "obj-14",
					"maxclass" : "newobj",
					"numinlets" : 2,
					"numoutlets" : 2,
					"outlettype" : [ "", "" ],
					"patching_rect" : [ 27.899999999999977, 45.0, 72.0, 23.0 ],
					"text" : "route lorenz"
				}

			}
, 			{
				"box" : 				{
					"id" : "obj-13",
					"maxclass" : "newobj",
					"numinlets" : 0,
					"numoutlets" : 1,
					"outlettype" : [ "" ],
					"patching_rect" : [ 27.899999999999977, 16.0, 41.0, 23.0 ],
					"text" : "r coda"
				}

			}
, 			{
				"box" : 				{
					"id" : "obj-12",
					"maxclass" : "newobj",
					"numinlets" : 1,
					"numoutlets" : 4,
					"outlettype" : [ "float", "float", "float", "float" ],
					"patching_rect" : [ 167.050000000000068, 147.0, 193.100000000000023, 23.0 ],
					"text" : "unpack 0. 0. 0. 0."
				}

			}
, 			{
				"box" : 				{
					"format" : 6,
					"id" : "obj-23",
					"maxclass" : "flonum",
					"numinlets" : 1,
					"numoutlets" : 2,
					"outlettype" : [ "", "bang" ],
					"parameter_enable" : 0,
					"patching_rect" : [ 341.150000000000091, 195.0, 50.0, 23.0 ]
				}

			}
, 			{
				"box" : 				{
					"format" : 6,
					"id" : "obj-25",
					"maxclass" : "flonum",
					"numinlets" : 1,
					"numoutlets" : 2,
					"outlettype" : [ "", "bang" ],
					"parameter_enable" : 0,
					"patching_rect" : [ 283.783333333333303, 195.0, 50.0, 23.0 ]
				}

			}
, 			{
				"box" : 				{
					"format" : 6,
					"id" : "obj-22",
					"maxclass" : "flonum",
					"numinlets" : 1,
					"numoutlets" : 2,
					"outlettype" : [ "", "bang" ],
					"parameter_enable" : 0,
					"patching_rect" : [ 225.25, 195.0, 50.0, 23.0 ]
				}

			}
, 			{
				"box" : 				{
					"id" : "obj-20",
					"maxclass" : "newobj",
					"numinlets" : 0,
					"numoutlets" : 1,
					"outlettype" : [ "" ],
					"patching_rect" : [ 91.044999999999987, 122.0, 47.0, 23.0 ],
					"text" : "r metro"
				}

			}
, 			{
				"box" : 				{
					"format" : 6,
					"id" : "obj-19",
					"maxclass" : "flonum",
					"numinlets" : 1,
					"numoutlets" : 2,
					"outlettype" : [ "", "bang" ],
					"parameter_enable" : 0,
					"patching_rect" : [ 167.71666666666664, 195.0, 50.0, 23.0 ]
				}

			}
, 			{
				"box" : 				{
					"id" : "obj-10",
					"maxclass" : "button",
					"numinlets" : 1,
					"numoutlets" : 1,
					"outlettype" : [ "bang" ],
					"parameter_enable" : 0,
					"patching_rect" : [ 27.899999999999977, 195.0, 24.0, 24.0 ]
				}

			}
, 			{
				"box" : 				{
					"id" : "obj-8",
					"maxclass" : "newobj",
					"numinlets" : 25,
					"numoutlets" : 1,
					"outlettype" : [ "" ],
					"patching_rect" : [ 27.899999999999977, 241.0, 824.786363636363717, 23.0 ],
					"text" : "lorenz"
				}

			}
 ],
		"lines" : [ 			{
				"patchline" : 				{
					"destination" : [ "obj-8", 0 ],
					"source" : [ "obj-10", 0 ]
				}

			}
, 			{
				"patchline" : 				{
					"destination" : [ "obj-8", 6 ],
					"source" : [ "obj-11", 0 ]
				}

			}
, 			{
				"patchline" : 				{
					"destination" : [ "obj-19", 0 ],
					"source" : [ "obj-12", 0 ]
				}

			}
, 			{
				"patchline" : 				{
					"destination" : [ "obj-22", 0 ],
					"source" : [ "obj-12", 1 ]
				}

			}
, 			{
				"patchline" : 				{
					"destination" : [ "obj-23", 0 ],
					"source" : [ "obj-12", 3 ]
				}

			}
, 			{
				"patchline" : 				{
					"destination" : [ "obj-25", 0 ],
					"source" : [ "obj-12", 2 ]
				}

			}
, 			{
				"patchline" : 				{
					"destination" : [ "obj-14", 0 ],
					"source" : [ "obj-13", 0 ]
				}

			}
, 			{
				"patchline" : 				{
					"destination" : [ "obj-15", 0 ],
					"order" : 1,
					"source" : [ "obj-14", 0 ]
				}

			}
, 			{
				"patchline" : 				{
					"destination" : [ "obj-9", 0 ],
					"midpoints" : [ 37.399999999999977, 78.0, 107.449999999999989, 78.0, 107.449999999999989, 39.0, 513.5, 39.0 ],
					"order" : 0,
					"source" : [ "obj-14", 0 ]
				}

			}
, 			{
				"patchline" : 				{
					"destination" : [ "obj-10", 0 ],
					"source" : [ "obj-15", 0 ]
				}

			}
, 			{
				"patchline" : 				{
					"destination" : [ "obj-11", 0 ],
					"source" : [ "obj-15", 16 ]
				}

			}
, 			{
				"patchline" : 				{
					"destination" : [ "obj-12", 0 ],
					"order" : 1,
					"source" : [ "obj-15", 5 ]
				}

			}
, 			{
				"patchline" : 				{
					"destination" : [ "obj-16", 0 ],
					"source" : [ "obj-15", 1 ]
				}

			}
, 			{
				"patchline" : 				{
					"destination" : [ "obj-2", 0 ],
					"order" : 0,
					"source" : [ "obj-15", 5 ]
				}

			}
, 			{
				"patchline" : 				{
					"destination" : [ "obj-34", 0 ],
					"source" : [ "obj-15", 15 ]
				}

			}
, 			{
				"patchline" : 				{
					"destination" : [ "obj-6", 0 ],
					"source" : [ "obj-15", 14 ]
				}

			}
, 			{
				"patchline" : 				{
					"destination" : [ "obj-8", 12 ],
					"source" : [ "obj-15", 13 ]
				}

			}
, 			{
				"patchline" : 				{
					"destination" : [ "obj-8", 11 ],
					"source" : [ "obj-15", 12 ]
				}

			}
, 			{
				"patchline" : 				{
					"destination" : [ "obj-8", 10 ],
					"source" : [ "obj-15", 11 ]
				}

			}
, 			{
				"patchline" : 				{
					"destination" : [ "obj-8", 9 ],
					"source" : [ "obj-15", 10 ]
				}

			}
, 			{
				"patchline" : 				{
					"destination" : [ "obj-8", 5 ],
					"source" : [ "obj-15", 9 ]
				}

			}
, 			{
				"patchline" : 				{
					"destination" : [ "obj-8", 4 ],
					"source" : [ "obj-15", 8 ]
				}

			}
, 			{
				"patchline" : 				{
					"destination" : [ "obj-8", 3 ],
					"source" : [ "obj-15", 7 ]
				}

			}
, 			{
				"patchline" : 				{
					"destination" : [ "obj-8", 2 ],
					"source" : [ "obj-15", 6 ]
				}

			}
, 			{
				"patchline" : 				{
					"destination" : [ "obj-8", 8 ],
					"source" : [ "obj-15", 4 ]
				}

			}
, 			{
				"patchline" : 				{
					"destination" : [ "obj-8", 7 ],
					"source" : [ "obj-15", 3 ]
				}

			}
, 			{
				"patchline" : 				{
					"destination" : [ "obj-8", 6 ],
					"source" : [ "obj-15", 2 ]
				}

			}
, 			{
				"patchline" : 				{
					"destination" : [ "obj-3", 0 ],
					"source" : [ "obj-16", 0 ]
				}

			}
, 			{
				"patchline" : 				{
					"destination" : [ "obj-8", 17 ],
					"source" : [ "obj-17", 0 ]
				}

			}
, 			{
				"patchline" : 				{
					"destination" : [ "obj-8", 18 ],
					"source" : [ "obj-18", 0 ]
				}

			}
, 			{
				"patchline" : 				{
					"destination" : [ "obj-8", 2 ],
					"source" : [ "obj-19", 0 ]
				}

			}
, 			{
				"patchline" : 				{
					"destination" : [ "obj-16", 2 ],
					"source" : [ "obj-20", 0 ]
				}

			}
, 			{
				"patchline" : 				{
					"destination" : [ "obj-8", 3 ],
					"source" : [ "obj-22", 0 ]
				}

			}
, 			{
				"patchline" : 				{
					"destination" : [ "obj-8", 5 ],
					"source" : [ "obj-23", 0 ]
				}

			}
, 			{
				"patchline" : 				{
					"destination" : [ "obj-8", 4 ],
					"source" : [ "obj-25", 0 ]
				}

			}
, 			{
				"patchline" : 				{
					"destination" : [ "obj-8", 16 ],
					"source" : [ "obj-27", 0 ]
				}

			}
, 			{
				"patchline" : 				{
					"destination" : [ "obj-5", 0 ],
					"source" : [ "obj-28", 0 ]
				}

			}
, 			{
				"patchline" : 				{
					"destination" : [ "obj-8", 13 ],
					"source" : [ "obj-29", 0 ]
				}

			}
, 			{
				"patchline" : 				{
					"destination" : [ "obj-8", 1 ],
					"source" : [ "obj-3", 0 ]
				}

			}
, 			{
				"patchline" : 				{
					"destination" : [ "obj-8", 6 ],
					"source" : [ "obj-34", 0 ]
				}

			}
, 			{
				"patchline" : 				{
					"destination" : [ "obj-8", 14 ],
					"source" : [ "obj-5", 1 ]
				}

			}
, 			{
				"patchline" : 				{
					"destination" : [ "obj-8", 15 ],
					"source" : [ "obj-5", 0 ]
				}

			}
, 			{
				"patchline" : 				{
					"destination" : [ "obj-8", 6 ],
					"source" : [ "obj-6", 0 ]
				}

			}
, 			{
				"patchline" : 				{
					"destination" : [ "obj-5", 0 ],
					"source" : [ "obj-7", 1 ]
				}

			}
, 			{
				"patchline" : 				{
					"destination" : [ "obj-8", 24 ],
					"source" : [ "obj-7", 10 ]
				}

			}
, 			{
				"patchline" : 				{
					"destination" : [ "obj-8", 23 ],
					"source" : [ "obj-7", 9 ]
				}

			}
, 			{
				"patchline" : 				{
					"destination" : [ "obj-8", 22 ],
					"source" : [ "obj-7", 8 ]
				}

			}
, 			{
				"patchline" : 				{
					"destination" : [ "obj-8", 21 ],
					"source" : [ "obj-7", 7 ]
				}

			}
, 			{
				"patchline" : 				{
					"destination" : [ "obj-8", 20 ],
					"source" : [ "obj-7", 6 ]
				}

			}
, 			{
				"patchline" : 				{
					"destination" : [ "obj-8", 19 ],
					"source" : [ "obj-7", 5 ]
				}

			}
, 			{
				"patchline" : 				{
					"destination" : [ "obj-8", 18 ],
					"source" : [ "obj-7", 4 ]
				}

			}
, 			{
				"patchline" : 				{
					"destination" : [ "obj-8", 17 ],
					"source" : [ "obj-7", 3 ]
				}

			}
, 			{
				"patchline" : 				{
					"destination" : [ "obj-8", 16 ],
					"source" : [ "obj-7", 2 ]
				}

			}
, 			{
				"patchline" : 				{
					"destination" : [ "obj-8", 13 ],
					"source" : [ "obj-7", 0 ]
				}

			}
, 			{
				"patchline" : 				{
					"destination" : [ "obj-1", 0 ],
					"source" : [ "obj-8", 0 ]
				}

			}
, 			{
				"patchline" : 				{
					"destination" : [ "obj-7", 0 ],
					"source" : [ "obj-9", 0 ]
				}

			}
 ],
		"dependency_cache" : [ 			{
				"name" : "lorenz.maxpat",
				"bootpath" : "~/sigv.js/sigv-js-main/patchers",
				"patcherrelativepath" : ".",
				"type" : "JSON",
				"implicit" : 1
			}
 ],
		"autosave" : 0,
		"styles" : [ 			{
				"name" : "AudioStatus_Menu",
				"default" : 				{
					"bgfillcolor" : 					{
						"type" : "color",
						"color" : [ 0.294118, 0.313726, 0.337255, 1 ],
						"color1" : [ 0.454902, 0.462745, 0.482353, 0.0 ],
						"color2" : [ 0.290196, 0.309804, 0.301961, 1.0 ],
						"angle" : 270.0,
						"proportion" : 0.39,
						"autogradient" : 0
					}

				}
,
				"parentstyle" : "",
				"multi" : 0
			}
, 			{
				"name" : "Jamoma_highlighted_orange",
				"default" : 				{
					"accentcolor" : [ 1.0, 0.5, 0.0, 1.0 ]
				}
,
				"parentstyle" : "",
				"multi" : 0
			}
, 			{
				"name" : "dvnt2",
				"default" : 				{
					"textcolor_inverse" : [ 0.0, 0.0, 0.0, 1.0 ],
					"elementcolor" : [ 0.681193, 0.750541, 0.758255, 1.0 ],
					"color" : [ 0.0, 0.0, 0.0, 1.0 ],
					"bgcolor" : [ 1.0, 1.0, 1.0, 1.0 ]
				}
,
				"parentstyle" : "",
				"multi" : 0
			}
, 			{
				"name" : "dvnt3",
				"parentstyle" : "",
				"multi" : 0
			}
, 			{
				"name" : "jpatcher001",
				"parentstyle" : "",
				"multi" : 0
			}
, 			{
				"name" : "ksliderWhite",
				"default" : 				{
					"color" : [ 1.0, 1.0, 1.0, 1.0 ]
				}
,
				"parentstyle" : "",
				"multi" : 0
			}
, 			{
				"name" : "myrDict",
				"default" : 				{
					"accentcolor" : [ 0.011765, 0.396078, 0.752941, 1.0 ]
				}
,
				"parentstyle" : "",
				"multi" : 0
			}
, 			{
				"name" : "myrInit",
				"default" : 				{
					"accentcolor" : [ 0.0, 1.0, 0.501961, 1.0 ]
				}
,
				"parentstyle" : "",
				"multi" : 0
			}
, 			{
				"name" : "myrLiveObject",
				"default" : 				{
					"accentcolor" : [ 0.960784, 0.827451, 0.156863, 1.0 ]
				}
,
				"parentstyle" : "",
				"multi" : 0
			}
, 			{
				"name" : "myrPattr",
				"default" : 				{
					"fontface" : [ 0 ],
					"fontsize" : [ 12.0 ],
					"accentcolor" : [ 0.945098, 0.913725, 0.407843, 1.0 ],
					"fontname" : [ "Arial" ]
				}
,
				"parentstyle" : "",
				"multi" : 0
			}
, 			{
				"name" : "myrReceive",
				"default" : 				{
					"accentcolor" : [ 0.701961, 0.415686, 0.886275, 1.0 ]
				}
,
				"parentstyle" : "",
				"multi" : 0
			}
, 			{
				"name" : "myrSend",
				"default" : 				{
					"accentcolor" : [ 0.466667, 0.254902, 0.607843, 1.0 ]
				}
,
				"parentstyle" : "",
				"multi" : 0
			}
, 			{
				"name" : "myrSubpatch",
				"default" : 				{
					"fontsize" : [ 12.0 ],
					"accentcolor" : [ 0.082353, 0.431373, 0.411765, 1.0 ],
					"fontname" : [ "Arial" ]
				}
,
				"parentstyle" : "",
				"multi" : 0
			}
, 			{
				"name" : "myrValue",
				"default" : 				{
					"accentcolor" : [ 0.317647, 0.654902, 0.976471, 1.0 ]
				}
,
				"parentstyle" : "",
				"multi" : 0
			}
, 			{
				"name" : "newobjBlue-1",
				"default" : 				{
					"accentcolor" : [ 0.317647, 0.654902, 0.976471, 1.0 ]
				}
,
				"parentstyle" : "",
				"multi" : 0
			}
, 			{
				"name" : "newobjGreen-1",
				"default" : 				{
					"accentcolor" : [ 0.0, 0.533333, 0.168627, 1.0 ]
				}
,
				"parentstyle" : "",
				"multi" : 0
			}
, 			{
				"name" : "newobjYellow-1",
				"default" : 				{
					"fontsize" : [ 12.059008 ],
					"accentcolor" : [ 0.82517, 0.78181, 0.059545, 1.0 ]
				}
,
				"parentstyle" : "",
				"multi" : 0
			}
, 			{
				"name" : "numberGold-1",
				"default" : 				{
					"accentcolor" : [ 0.764706, 0.592157, 0.101961, 1 ]
				}
,
				"parentstyle" : "",
				"multi" : 0
			}
, 			{
				"name" : "sigv.js",
				"default" : 				{
					"selectioncolor" : [ 0.45281594991684, 0.528640389442444, 0.598021566867828, 1.0 ],
					"textcolor_inverse" : [ 0.67843137254902, 0.713725490196078, 0.76078431372549, 1.0 ],
					"clearcolor" : [ 0.07058823529, 0.1058823529, 0.1647058824, 1.0 ],
					"locked_bgcolor" : [ 0.049247920513153, 0.058372475206852, 0.068464912474155, 1.0 ],
					"bgfillcolor" : 					{
						"type" : "gradient",
						"color1" : [ 0.07799056917429, 0.098447218537331, 0.10713404417038, 1.0 ],
						"color2" : [ 0.07058823529, 0.1058823529, 0.1647058824, 1.0 ],
						"color" : [ 0.2, 0.2, 0.2, 1.0 ]
					}
,
					"textcolor" : [ 0.6, 0.772549019607843, 1.0, 1.0 ],
					"editing_bgcolor" : [ 0.049247920513153, 0.058372475206852, 0.068464912474155, 1.0 ],
					"accentcolor" : [ 0.07799056917429, 0.098447218537331, 0.10713404417038, 1.0 ],
					"patchlinecolor" : [ 0.086274509803922, 0.266666666666667, 0.345098039215686, 1.0 ],
					"elementcolor" : [ 0.57438737154007, 0.665937542915344, 0.915809035301208, 1.0 ],
					"fontname" : [ "Lato" ],
					"color" : [ 0.0, 0.431372549019608, 1.0, 1.0 ],
					"bgcolor" : [ 0.070588235294118, 0.105882352941176, 0.164705882352941, 1.0 ]
				}
,
				"parentstyle" : "",
				"multi" : 0
			}
 ],
		"bgfillcolor_type" : "gradient",
		"bgfillcolor_color1" : [ 0.07799056917429, 0.098447218537331, 0.10713404417038, 1.0 ],
		"bgfillcolor_color2" : [ 0.07058823529, 0.1058823529, 0.1647058824, 1.0 ],
		"bgfillcolor_color" : [ 0.2, 0.2, 0.2, 1.0 ]
	}

}
