{
	"patcher" : 	{
		"fileversion" : 1,
		"appversion" : 		{
			"major" : 8,
			"minor" : 5,
			"revision" : 3,
			"architecture" : "x64",
			"modernui" : 1
		}
,
		"classnamespace" : "box",
		"rect" : [ 1336.0, 174.0, 255.0, 295.0 ],
		"bglocked" : 0,
		"openinpresentation" : 0,
		"default_fontsize" : 12.0,
		"default_fontface" : 0,
		"default_fontname" : "Lato",
		"gridonopen" : 1,
		"gridsize" : [ 10.0, 10.0 ],
		"gridsnaponopen" : 1,
		"objectsnaponopen" : 1,
		"statusbarvisible" : 2,
		"toolbarvisible" : 1,
		"lefttoolbarpinned" : 2,
		"toptoolbarpinned" : 2,
		"righttoolbarpinned" : 2,
		"bottomtoolbarpinned" : 2,
		"toolbars_unpinned_last_save" : 15,
		"tallnewobj" : 0,
		"boxanimatetime" : 200,
		"enablehscroll" : 1,
		"enablevscroll" : 1,
		"devicewidth" : 0.0,
		"description" : "",
		"digest" : "",
		"tags" : "",
		"style" : "sigv.js",
		"subpatcher_template" : "sigv.js",
		"assistshowspatchername" : 0,
		"boxes" : [ 			{
				"box" : 				{
					"id" : "obj-7",
					"maxclass" : "newobj",
					"numinlets" : 1,
					"numoutlets" : 1,
					"outlettype" : [ "jit_matrix" ],
					"patcher" : 					{
						"fileversion" : 1,
						"appversion" : 						{
							"major" : 8,
							"minor" : 5,
							"revision" : 3,
							"architecture" : "x64",
							"modernui" : 1
						}
,
						"classnamespace" : "box",
						"rect" : [ 519.0, 187.0, 665.0, 518.0 ],
						"bglocked" : 0,
						"openinpresentation" : 0,
						"default_fontsize" : 12.0,
						"default_fontface" : 0,
						"default_fontname" : "Lato",
						"gridonopen" : 1,
						"gridsize" : [ 10.0, 10.0 ],
						"gridsnaponopen" : 1,
						"objectsnaponopen" : 1,
						"statusbarvisible" : 2,
						"toolbarvisible" : 1,
						"lefttoolbarpinned" : 2,
						"toptoolbarpinned" : 2,
						"righttoolbarpinned" : 2,
						"bottomtoolbarpinned" : 2,
						"toolbars_unpinned_last_save" : 15,
						"tallnewobj" : 0,
						"boxanimatetime" : 200,
						"enablehscroll" : 1,
						"enablevscroll" : 1,
						"devicewidth" : 0.0,
						"description" : "",
						"digest" : "",
						"tags" : "",
						"style" : "sigv.js",
						"subpatcher_template" : "sigv.js",
						"assistshowspatchername" : 0,
						"boxes" : [ 							{
								"box" : 								{
									"comment" : "",
									"id" : "obj-3",
									"index" : 1,
									"maxclass" : "outlet",
									"numinlets" : 1,
									"numoutlets" : 0,
									"patching_rect" : [ 128.75, 445.954345703125, 30.0, 30.0 ]
								}

							}
, 							{
								"box" : 								{
									"id" : "obj-2",
									"maxclass" : "newobj",
									"numinlets" : 2,
									"numoutlets" : 2,
									"outlettype" : [ "", "" ],
									"patching_rect" : [ 281.0, 53.0, 61.0, 23.0 ],
									"text" : "route cam"
								}

							}
, 							{
								"box" : 								{
									"comment" : "",
									"id" : "obj-1",
									"index" : 1,
									"maxclass" : "inlet",
									"numinlets" : 0,
									"numoutlets" : 1,
									"outlettype" : [ "" ],
									"patching_rect" : [ 280.75, 14.0, 30.0, 30.0 ]
								}

							}
, 							{
								"box" : 								{
									"id" : "obj-33",
									"maxclass" : "newobj",
									"numinlets" : 4,
									"numoutlets" : 4,
									"outlettype" : [ "", "", "", "" ],
									"patching_rect" : [ 280.75, 88.954345703125, 135.0, 23.0 ],
									"text" : "route power metro vdev"
								}

							}
, 							{
								"box" : 								{
									"id" : "obj-41",
									"maxclass" : "toggle",
									"numinlets" : 1,
									"numoutlets" : 1,
									"outlettype" : [ "int" ],
									"parameter_enable" : 0,
									"patching_rect" : [ 139.75, 27.954345703125, 24.0, 24.0 ]
								}

							}
, 							{
								"box" : 								{
									"attr" : "adapt",
									"fontface" : 0,
									"fontname" : "Arial",
									"fontsize" : 13.0,
									"id" : "obj-43",
									"maxclass" : "attrui",
									"numinlets" : 1,
									"numoutlets" : 1,
									"outlettype" : [ "" ],
									"parameter_enable" : 0,
									"patching_rect" : [ 293.25, 230.954345703125, 96.0, 23.0 ],
									"text_width" : 58.0
								}

							}
, 							{
								"box" : 								{
									"fontname" : "Arial",
									"fontsize" : 13.0,
									"id" : "obj-44",
									"maxclass" : "newobj",
									"numinlets" : 1,
									"numoutlets" : 2,
									"outlettype" : [ "clear", "clear" ],
									"patcher" : 									{
										"fileversion" : 1,
										"appversion" : 										{
											"major" : 8,
											"minor" : 5,
											"revision" : 3,
											"architecture" : "x64",
											"modernui" : 1
										}
,
										"classnamespace" : "box",
										"rect" : [ 34.0, 79.0, 389.0, 300.0 ],
										"bglocked" : 0,
										"openinpresentation" : 0,
										"default_fontsize" : 12.0,
										"default_fontface" : 0,
										"default_fontname" : "Arial",
										"gridonopen" : 1,
										"gridsize" : [ 15.0, 15.0 ],
										"gridsnaponopen" : 1,
										"objectsnaponopen" : 1,
										"statusbarvisible" : 2,
										"toolbarvisible" : 1,
										"lefttoolbarpinned" : 0,
										"toptoolbarpinned" : 0,
										"righttoolbarpinned" : 0,
										"bottomtoolbarpinned" : 0,
										"toolbars_unpinned_last_save" : 0,
										"tallnewobj" : 0,
										"boxanimatetime" : 200,
										"enablehscroll" : 1,
										"enablevscroll" : 1,
										"devicewidth" : 0.0,
										"description" : "",
										"digest" : "",
										"tags" : "",
										"style" : "",
										"subpatcher_template" : "",
										"assistshowspatchername" : 0,
										"boxes" : [ 											{
												"box" : 												{
													"fontname" : "Arial",
													"fontsize" : 13.0,
													"id" : "obj-21",
													"maxclass" : "newobj",
													"numinlets" : 1,
													"numoutlets" : 1,
													"outlettype" : [ "" ],
													"patching_rect" : [ 50.0, 132.5, 27.0, 23.0 ],
													"text" : "iter"
												}

											}
, 											{
												"box" : 												{
													"fontname" : "Arial",
													"fontsize" : 13.0,
													"id" : "obj-23",
													"maxclass" : "newobj",
													"numinlets" : 1,
													"numoutlets" : 1,
													"outlettype" : [ "clear" ],
													"patching_rect" : [ 151.0, 132.5, 46.0, 23.0 ],
													"text" : "t clear"
												}

											}
, 											{
												"box" : 												{
													"fontname" : "Arial",
													"fontsize" : 13.0,
													"id" : "obj-24",
													"maxclass" : "newobj",
													"numinlets" : 1,
													"numoutlets" : 1,
													"outlettype" : [ "clear" ],
													"patching_rect" : [ 302.0, 131.5, 46.0, 23.0 ],
													"text" : "t clear"
												}

											}
, 											{
												"box" : 												{
													"fontname" : "Arial",
													"fontsize" : 13.0,
													"id" : "obj-27",
													"maxclass" : "newobj",
													"numinlets" : 1,
													"numoutlets" : 1,
													"outlettype" : [ "" ],
													"patching_rect" : [ 201.0, 155.5, 107.0, 23.0 ],
													"text" : "prepend append"
												}

											}
, 											{
												"box" : 												{
													"fontname" : "Arial",
													"fontsize" : 13.0,
													"id" : "obj-28",
													"maxclass" : "newobj",
													"numinlets" : 1,
													"numoutlets" : 1,
													"outlettype" : [ "" ],
													"patching_rect" : [ 201.0, 132.5, 27.0, 23.0 ],
													"text" : "iter"
												}

											}
, 											{
												"box" : 												{
													"fontname" : "Arial",
													"fontsize" : 13.0,
													"id" : "obj-32",
													"maxclass" : "newobj",
													"numinlets" : 1,
													"numoutlets" : 1,
													"outlettype" : [ "" ],
													"patching_rect" : [ 50.0, 155.5, 107.0, 23.0 ],
													"text" : "prepend append"
												}

											}
, 											{
												"box" : 												{
													"fontname" : "Arial",
													"fontsize" : 13.0,
													"id" : "obj-33",
													"maxclass" : "newobj",
													"numinlets" : 3,
													"numoutlets" : 3,
													"outlettype" : [ "", "", "" ],
													"patching_rect" : [ 50.0, 100.0, 141.0, 23.0 ],
													"text" : "route vdevlist formatlist"
												}

											}
, 											{
												"box" : 												{
													"comment" : "",
													"id" : "obj-1",
													"index" : 1,
													"maxclass" : "inlet",
													"numinlets" : 0,
													"numoutlets" : 1,
													"outlettype" : [ "" ],
													"patching_rect" : [ 50.0, 40.0, 25.0, 25.0 ]
												}

											}
, 											{
												"box" : 												{
													"comment" : "",
													"id" : "obj-5",
													"index" : 1,
													"maxclass" : "outlet",
													"numinlets" : 1,
													"numoutlets" : 0,
													"patching_rect" : [ 95.5, 236.5, 25.0, 25.0 ]
												}

											}
, 											{
												"box" : 												{
													"comment" : "",
													"id" : "obj-13",
													"index" : 2,
													"maxclass" : "outlet",
													"numinlets" : 1,
													"numoutlets" : 0,
													"patching_rect" : [ 246.5, 236.5, 25.0, 25.0 ]
												}

											}
 ],
										"lines" : [ 											{
												"patchline" : 												{
													"destination" : [ "obj-33", 0 ],
													"source" : [ "obj-1", 0 ]
												}

											}
, 											{
												"patchline" : 												{
													"destination" : [ "obj-32", 0 ],
													"source" : [ "obj-21", 0 ]
												}

											}
, 											{
												"patchline" : 												{
													"destination" : [ "obj-5", 0 ],
													"source" : [ "obj-23", 0 ]
												}

											}
, 											{
												"patchline" : 												{
													"destination" : [ "obj-13", 0 ],
													"source" : [ "obj-24", 0 ]
												}

											}
, 											{
												"patchline" : 												{
													"destination" : [ "obj-13", 0 ],
													"source" : [ "obj-27", 0 ]
												}

											}
, 											{
												"patchline" : 												{
													"destination" : [ "obj-27", 0 ],
													"source" : [ "obj-28", 0 ]
												}

											}
, 											{
												"patchline" : 												{
													"destination" : [ "obj-5", 0 ],
													"source" : [ "obj-32", 0 ]
												}

											}
, 											{
												"patchline" : 												{
													"destination" : [ "obj-21", 0 ],
													"order" : 1,
													"source" : [ "obj-33", 0 ]
												}

											}
, 											{
												"patchline" : 												{
													"destination" : [ "obj-23", 0 ],
													"midpoints" : [ 59.5, 128.5, 160.5, 128.5 ],
													"order" : 0,
													"source" : [ "obj-33", 0 ]
												}

											}
, 											{
												"patchline" : 												{
													"destination" : [ "obj-24", 0 ],
													"midpoints" : [ 120.5, 124.5, 311.5, 124.5 ],
													"order" : 0,
													"source" : [ "obj-33", 1 ]
												}

											}
, 											{
												"patchline" : 												{
													"destination" : [ "obj-28", 0 ],
													"midpoints" : [ 120.5, 124.5, 210.5, 124.5 ],
													"order" : 1,
													"source" : [ "obj-33", 1 ]
												}

											}
 ]
									}
,
									"patching_rect" : [ 263.75, 298.454345703125, 170.0, 23.0 ],
									"saved_object_attributes" : 									{
										"description" : "",
										"digest" : "",
										"globalpatchername" : "",
										"tags" : ""
									}
,
									"text" : "p vdev/format"
								}

							}
, 							{
								"box" : 								{
									"attr" : "dim",
									"fontface" : 0,
									"fontname" : "Arial",
									"fontsize" : 13.0,
									"id" : "obj-45",
									"lock" : 1,
									"maxclass" : "attrui",
									"numinlets" : 1,
									"numoutlets" : 1,
									"outlettype" : [ "" ],
									"parameter_enable" : 0,
									"patching_rect" : [ 174.75, 230.954345703125, 116.0, 23.0 ],
									"text_width" : 32.0
								}

							}
, 							{
								"box" : 								{
									"fontname" : "Arial",
									"fontsize" : 13.0,
									"id" : "obj-46",
									"maxclass" : "message",
									"numinlets" : 2,
									"numoutlets" : 1,
									"outlettype" : [ "" ],
									"patching_rect" : [ 414.75, 395.454345703125, 63.0, 23.0 ],
									"text" : "format $1"
								}

							}
, 							{
								"box" : 								{
									"id" : "obj-47",
									"items" : "<empty>",
									"maxclass" : "umenu",
									"numinlets" : 1,
									"numoutlets" : 3,
									"outlettype" : [ "int", "", "" ],
									"parameter_enable" : 0,
									"patching_rect" : [ 414.75, 326.454345703125, 211.5, 23.0 ]
								}

							}
, 							{
								"box" : 								{
									"fontname" : "Arial",
									"fontsize" : 13.0,
									"id" : "obj-48",
									"maxclass" : "message",
									"numinlets" : 2,
									"numoutlets" : 1,
									"outlettype" : [ "" ],
									"patching_rect" : [ 263.75, 395.454345703125, 73.0, 23.0 ],
									"text" : "vdevice $1"
								}

							}
, 							{
								"box" : 								{
									"id" : "obj-49",
									"items" : [ "FaceTime HD Camera (Built-in)", ",", "GoPro Webcam", ",", "FUJIFILM X Webcam 2", ",", "OBS Virtual Camera", ",", "EOS Webcam Utility", ",", "1080P Web Camera" ],
									"maxclass" : "umenu",
									"numinlets" : 1,
									"numoutlets" : 3,
									"outlettype" : [ "int", "", "" ],
									"parameter_enable" : 0,
									"patching_rect" : [ 263.75, 326.454345703125, 145.0, 23.0 ]
								}

							}
, 							{
								"box" : 								{
									"fontname" : "Arial",
									"fontsize" : 13.0,
									"id" : "obj-50",
									"maxclass" : "message",
									"numinlets" : 2,
									"numoutlets" : 1,
									"outlettype" : [ "" ],
									"patching_rect" : [ 207.75, 156.954345703125, 79.0, 23.0 ],
									"text" : "getformatlist"
								}

							}
, 							{
								"box" : 								{
									"fontname" : "Arial",
									"fontsize" : 13.0,
									"id" : "obj-51",
									"maxclass" : "message",
									"numinlets" : 2,
									"numoutlets" : 1,
									"outlettype" : [ "" ],
									"patching_rect" : [ 120.25, 156.954345703125, 72.0, 23.0 ],
									"text" : "getvdevlist"
								}

							}
, 							{
								"box" : 								{
									"id" : "obj-52",
									"maxclass" : "button",
									"numinlets" : 1,
									"numoutlets" : 1,
									"outlettype" : [ "bang" ],
									"parameter_enable" : 0,
									"patching_rect" : [ 92.0, 230.954345703125, 24.0, 24.0 ]
								}

							}
, 							{
								"box" : 								{
									"fontname" : "Arial",
									"fontsize" : 13.0,
									"id" : "obj-53",
									"maxclass" : "message",
									"numinlets" : 2,
									"numoutlets" : 1,
									"outlettype" : [ "" ],
									"patching_rect" : [ 123.75, 230.954345703125, 40.0, 23.0 ],
									"text" : "clear"
								}

							}
, 							{
								"box" : 								{
									"fontname" : "Arial",
									"fontsize" : 13.0,
									"id" : "obj-55",
									"maxclass" : "message",
									"numinlets" : 2,
									"numoutlets" : 1,
									"outlettype" : [ "" ],
									"patching_rect" : [ 30.0, 27.954345703125, 42.0, 23.0 ],
									"text" : "close"
								}

							}
, 							{
								"box" : 								{
									"fontname" : "Arial",
									"fontsize" : 13.0,
									"id" : "obj-57",
									"maxclass" : "message",
									"numinlets" : 2,
									"numoutlets" : 1,
									"outlettype" : [ "" ],
									"patching_rect" : [ 84.0, 27.954345703125, 40.0, 23.0 ],
									"text" : "open"
								}

							}
, 							{
								"box" : 								{
									"fontname" : "Arial",
									"fontsize" : 13.0,
									"format" : 6,
									"id" : "obj-91",
									"maxclass" : "flonum",
									"minimum" : 0.5,
									"numinlets" : 1,
									"numoutlets" : 2,
									"outlettype" : [ "", "bang" ],
									"parameter_enable" : 0,
									"patching_rect" : [ 114.25, 78.954345703125, 45.0, 23.0 ],
									"triscale" : 0.9
								}

							}
, 							{
								"box" : 								{
									"id" : "obj-92",
									"maxclass" : "toggle",
									"numinlets" : 1,
									"numoutlets" : 1,
									"outlettype" : [ "int" ],
									"parameter_enable" : 0,
									"patching_rect" : [ 63.75, 78.954345703125, 24.0, 24.0 ]
								}

							}
, 							{
								"box" : 								{
									"fontname" : "Arial",
									"fontsize" : 13.0,
									"id" : "obj-93",
									"maxclass" : "newobj",
									"numinlets" : 2,
									"numoutlets" : 1,
									"outlettype" : [ "bang" ],
									"patching_rect" : [ 63.75, 108.954345703125, 69.5, 23.0 ],
									"text" : "qmetro 30"
								}

							}
, 							{
								"box" : 								{
									"fontface" : 0,
									"fontname" : "Arial",
									"fontsize" : 13.0,
									"id" : "obj-95",
									"maxclass" : "newobj",
									"numinlets" : 1,
									"numoutlets" : 2,
									"outlettype" : [ "jit_matrix", "" ],
									"patching_rect" : [ 63.75, 266.454345703125, 98.0, 23.0 ],
									"text" : "jit.grab 320 240"
								}

							}
, 							{
								"box" : 								{
									"fontface" : 0,
									"fontname" : "Arial",
									"fontsize" : 13.0,
									"id" : "obj-58",
									"maxclass" : "jit.fpsgui",
									"numinlets" : 1,
									"numoutlets" : 2,
									"outlettype" : [ "", "" ],
									"patching_rect" : [ 63.75, 445.954345703125, 55.0, 36.0 ]
								}

							}
, 							{
								"box" : 								{
									"id" : "obj-59",
									"maxclass" : "jit.pwindow",
									"numinlets" : 1,
									"numoutlets" : 2,
									"outlettype" : [ "jit_matrix", "" ],
									"patching_rect" : [ 63.75, 299.454345703125, 160.0, 120.0 ],
									"sync" : 1
								}

							}
 ],
						"lines" : [ 							{
								"patchline" : 								{
									"destination" : [ "obj-2", 0 ],
									"source" : [ "obj-1", 0 ]
								}

							}
, 							{
								"patchline" : 								{
									"destination" : [ "obj-33", 0 ],
									"source" : [ "obj-2", 0 ]
								}

							}
, 							{
								"patchline" : 								{
									"destination" : [ "obj-41", 0 ],
									"source" : [ "obj-33", 0 ]
								}

							}
, 							{
								"patchline" : 								{
									"destination" : [ "obj-44", 0 ],
									"source" : [ "obj-33", 2 ]
								}

							}
, 							{
								"patchline" : 								{
									"destination" : [ "obj-92", 0 ],
									"source" : [ "obj-33", 1 ]
								}

							}
, 							{
								"patchline" : 								{
									"destination" : [ "obj-95", 0 ],
									"midpoints" : [ 149.25, 60.954345703125, 48.75, 60.954345703125, 48.75, 253.954345703125, 73.25, 253.954345703125 ],
									"source" : [ "obj-41", 0 ]
								}

							}
, 							{
								"patchline" : 								{
									"destination" : [ "obj-95", 0 ],
									"midpoints" : [ 302.75, 259.704345703125, 73.25, 259.704345703125 ],
									"source" : [ "obj-43", 0 ]
								}

							}
, 							{
								"patchline" : 								{
									"destination" : [ "obj-47", 0 ],
									"source" : [ "obj-44", 1 ]
								}

							}
, 							{
								"patchline" : 								{
									"destination" : [ "obj-49", 0 ],
									"source" : [ "obj-44", 0 ]
								}

							}
, 							{
								"patchline" : 								{
									"destination" : [ "obj-95", 0 ],
									"midpoints" : [ 184.25, 259.954345703125, 73.25, 259.954345703125 ],
									"source" : [ "obj-45", 0 ]
								}

							}
, 							{
								"patchline" : 								{
									"destination" : [ "obj-95", 0 ],
									"midpoints" : [ 424.25, 425.954345703125, 53.75, 425.954345703125, 53.75, 254.954345703125, 73.25, 254.954345703125 ],
									"source" : [ "obj-46", 0 ]
								}

							}
, 							{
								"patchline" : 								{
									"destination" : [ "obj-46", 0 ],
									"source" : [ "obj-47", 0 ]
								}

							}
, 							{
								"patchline" : 								{
									"destination" : [ "obj-95", 0 ],
									"midpoints" : [ 273.25, 425.954345703125, 53.75, 425.954345703125, 53.75, 255.954345703125, 73.25, 255.954345703125 ],
									"source" : [ "obj-48", 0 ]
								}

							}
, 							{
								"patchline" : 								{
									"destination" : [ "obj-48", 0 ],
									"source" : [ "obj-49", 0 ]
								}

							}
, 							{
								"patchline" : 								{
									"destination" : [ "obj-95", 0 ],
									"midpoints" : [ 217.25, 196.954345703125, 73.25, 196.954345703125 ],
									"source" : [ "obj-50", 0 ]
								}

							}
, 							{
								"patchline" : 								{
									"destination" : [ "obj-95", 0 ],
									"midpoints" : [ 129.75, 196.954345703125, 73.25, 196.954345703125 ],
									"source" : [ "obj-51", 0 ]
								}

							}
, 							{
								"patchline" : 								{
									"destination" : [ "obj-95", 0 ],
									"midpoints" : [ 101.5, 258.954345703125, 73.25, 258.954345703125 ],
									"source" : [ "obj-52", 0 ]
								}

							}
, 							{
								"patchline" : 								{
									"destination" : [ "obj-95", 0 ],
									"midpoints" : [ 133.25, 259.954345703125, 73.25, 259.954345703125 ],
									"source" : [ "obj-53", 0 ]
								}

							}
, 							{
								"patchline" : 								{
									"destination" : [ "obj-95", 0 ],
									"midpoints" : [ 39.5, 53.954345703125, 49.75, 53.954345703125, 49.75, 255.954345703125, 73.25, 255.954345703125 ],
									"source" : [ "obj-55", 0 ]
								}

							}
, 							{
								"patchline" : 								{
									"destination" : [ "obj-95", 0 ],
									"midpoints" : [ 93.5, 60.954345703125, 49.75, 60.954345703125, 49.75, 254.954345703125, 73.25, 254.954345703125 ],
									"source" : [ "obj-57", 0 ]
								}

							}
, 							{
								"patchline" : 								{
									"destination" : [ "obj-58", 0 ],
									"source" : [ "obj-59", 0 ]
								}

							}
, 							{
								"patchline" : 								{
									"destination" : [ "obj-93", 1 ],
									"source" : [ "obj-91", 0 ]
								}

							}
, 							{
								"patchline" : 								{
									"destination" : [ "obj-93", 0 ],
									"source" : [ "obj-92", 0 ]
								}

							}
, 							{
								"patchline" : 								{
									"destination" : [ "obj-95", 0 ],
									"source" : [ "obj-93", 0 ]
								}

							}
, 							{
								"patchline" : 								{
									"destination" : [ "obj-3", 0 ],
									"order" : 0,
									"source" : [ "obj-95", 0 ]
								}

							}
, 							{
								"patchline" : 								{
									"destination" : [ "obj-44", 0 ],
									"midpoints" : [ 152.25, 293.454345703125, 273.25, 293.454345703125 ],
									"source" : [ "obj-95", 1 ]
								}

							}
, 							{
								"patchline" : 								{
									"destination" : [ "obj-59", 0 ],
									"order" : 1,
									"source" : [ "obj-95", 0 ]
								}

							}
 ],
						"styles" : [ 							{
								"name" : "AudioStatus_Menu",
								"default" : 								{
									"bgfillcolor" : 									{
										"angle" : 270.0,
										"autogradient" : 0,
										"color" : [ 0.294118, 0.313726, 0.337255, 1 ],
										"color1" : [ 0.454902, 0.462745, 0.482353, 0.0 ],
										"color2" : [ 0.290196, 0.309804, 0.301961, 1.0 ],
										"proportion" : 0.39,
										"type" : "color"
									}

								}
,
								"parentstyle" : "",
								"multi" : 0
							}
, 							{
								"name" : "Jamoma_highlighted_orange",
								"default" : 								{
									"accentcolor" : [ 1.0, 0.5, 0.0, 1.0 ]
								}
,
								"parentstyle" : "",
								"multi" : 0
							}
, 							{
								"name" : "dvnt2",
								"default" : 								{
									"bgcolor" : [ 1.0, 1.0, 1.0, 1.0 ],
									"color" : [ 0.0, 0.0, 0.0, 1.0 ],
									"elementcolor" : [ 0.681193, 0.750541, 0.758255, 1.0 ],
									"textcolor_inverse" : [ 0.0, 0.0, 0.0, 1.0 ]
								}
,
								"parentstyle" : "",
								"multi" : 0
							}
, 							{
								"name" : "dvnt3",
								"parentstyle" : "",
								"multi" : 0
							}
, 							{
								"name" : "jpatcher001",
								"parentstyle" : "",
								"multi" : 0
							}
, 							{
								"name" : "myrDict",
								"default" : 								{
									"accentcolor" : [ 0.011765, 0.396078, 0.752941, 1.0 ]
								}
,
								"parentstyle" : "",
								"multi" : 0
							}
, 							{
								"name" : "myrInit",
								"default" : 								{
									"accentcolor" : [ 0.0, 1.0, 0.501961, 1.0 ]
								}
,
								"parentstyle" : "",
								"multi" : 0
							}
, 							{
								"name" : "myrLiveObject",
								"default" : 								{
									"accentcolor" : [ 0.960784, 0.827451, 0.156863, 1.0 ]
								}
,
								"parentstyle" : "",
								"multi" : 0
							}
, 							{
								"name" : "myrPattr",
								"default" : 								{
									"accentcolor" : [ 0.945098, 0.913725, 0.407843, 1.0 ],
									"fontface" : [ 0 ],
									"fontname" : [ "Arial" ],
									"fontsize" : [ 12.0 ]
								}
,
								"parentstyle" : "",
								"multi" : 0
							}
, 							{
								"name" : "myrReceive",
								"default" : 								{
									"accentcolor" : [ 0.701961, 0.415686, 0.886275, 1.0 ]
								}
,
								"parentstyle" : "",
								"multi" : 0
							}
, 							{
								"name" : "myrSend",
								"default" : 								{
									"accentcolor" : [ 0.466667, 0.254902, 0.607843, 1.0 ]
								}
,
								"parentstyle" : "",
								"multi" : 0
							}
, 							{
								"name" : "myrSubpatch",
								"default" : 								{
									"accentcolor" : [ 0.082353, 0.431373, 0.411765, 1.0 ],
									"fontname" : [ "Arial" ],
									"fontsize" : [ 12.0 ]
								}
,
								"parentstyle" : "",
								"multi" : 0
							}
, 							{
								"name" : "myrValue",
								"default" : 								{
									"accentcolor" : [ 0.317647, 0.654902, 0.976471, 1.0 ]
								}
,
								"parentstyle" : "",
								"multi" : 0
							}
, 							{
								"name" : "newobjBlue-1",
								"default" : 								{
									"accentcolor" : [ 0.317647, 0.654902, 0.976471, 1.0 ]
								}
,
								"parentstyle" : "",
								"multi" : 0
							}
, 							{
								"name" : "newobjGreen-1",
								"default" : 								{
									"accentcolor" : [ 0.0, 0.533333, 0.168627, 1.0 ]
								}
,
								"parentstyle" : "",
								"multi" : 0
							}
, 							{
								"name" : "newobjYellow-1",
								"default" : 								{
									"accentcolor" : [ 0.82517, 0.78181, 0.059545, 1.0 ],
									"fontsize" : [ 12.059008 ]
								}
,
								"parentstyle" : "",
								"multi" : 0
							}
, 							{
								"name" : "sigv.js",
								"default" : 								{
									"accentcolor" : [ 0.07799056917429, 0.098447218537331, 0.10713404417038, 1.0 ],
									"bgcolor" : [ 0.070588235294118, 0.105882352941176, 0.164705882352941, 1.0 ],
									"bgfillcolor" : 									{
										"color" : [ 0.2, 0.2, 0.2, 1.0 ],
										"color1" : [ 0.07799056917429, 0.098447218537331, 0.10713404417038, 1.0 ],
										"color2" : [ 0.07058823529, 0.1058823529, 0.1647058824, 1.0 ],
										"type" : "gradient"
									}
,
									"clearcolor" : [ 0.07058823529, 0.1058823529, 0.1647058824, 1.0 ],
									"color" : [ 0.0, 0.431372549019608, 1.0, 1.0 ],
									"editing_bgcolor" : [ 0.049247920513153, 0.058372475206852, 0.068464912474155, 1.0 ],
									"elementcolor" : [ 0.57438737154007, 0.665937542915344, 0.915809035301208, 1.0 ],
									"fontname" : [ "Lato" ],
									"locked_bgcolor" : [ 0.049247920513153, 0.058372475206852, 0.068464912474155, 1.0 ],
									"patchlinecolor" : [ 0.086274509803922, 0.266666666666667, 0.345098039215686, 1.0 ],
									"selectioncolor" : [ 0.45281594991684, 0.528640389442444, 0.598021566867828, 1.0 ],
									"textcolor" : [ 0.6, 0.772549019607843, 1.0, 1.0 ],
									"textcolor_inverse" : [ 0.67843137254902, 0.713725490196078, 0.76078431372549, 1.0 ]
								}
,
								"parentstyle" : "",
								"multi" : 0
							}
 ],
						"default_bgcolor" : [ 0.070588235294118, 0.105882352941176, 0.164705882352941, 1.0 ],
						"color" : [ 0.0, 0.431372549019608, 1.0, 1.0 ],
						"elementcolor" : [ 0.57438737154007, 0.665937542915344, 0.915809035301208, 1.0 ],
						"accentcolor" : [ 0.07799056917429, 0.098447218537331, 0.10713404417038, 1.0 ],
						"selectioncolor" : [ 0.45281594991684, 0.528640389442444, 0.598021566867828, 1.0 ],
						"textcolor" : [ 0.6, 0.772549019607843, 1.0, 1.0 ],
						"textcolor_inverse" : [ 0.67843137254902, 0.713725490196078, 0.76078431372549, 1.0 ],
						"patchlinecolor" : [ 0.086274509803922, 0.266666666666667, 0.345098039215686, 1.0 ],
						"clearcolor" : [ 0.07058823529, 0.1058823529, 0.1647058824, 1.0 ],
						"bgcolor" : [ 0.049247920513153, 0.058372475206852, 0.068464912474155, 1.0 ],
						"editing_bgcolor" : [ 0.049247920513153, 0.058372475206852, 0.068464912474155, 1.0 ],
						"bgfillcolor_type" : "gradient",
						"bgfillcolor_color1" : [ 0.07799056917429, 0.098447218537331, 0.10713404417038, 1.0 ],
						"bgfillcolor_color2" : [ 0.07058823529, 0.1058823529, 0.1647058824, 1.0 ],
						"bgfillcolor_color" : [ 0.2, 0.2, 0.2, 1.0 ],
						"bgfillcolor_angle" : 270.0,
						"bgfillcolor_proportion" : 0.5,
						"bgfillcolor_autogradient" : 0.0
					}
,
					"patching_rect" : [ 156.0, 165.0, 49.0, 23.0 ],
					"saved_object_attributes" : 					{
						"accentcolor" : [ 0.07799056917429, 0.098447218537331, 0.10713404417038, 1.0 ],
						"bgcolor" : [ 0.070588235294118, 0.105882352941176, 0.164705882352941, 1.0 ],
						"clearcolor" : [ 0.07058823529, 0.1058823529, 0.1647058824, 1.0 ],
						"color" : [ 0.0, 0.431372549019608, 1.0, 1.0 ],
						"description" : "",
						"digest" : "",
						"editing_bgcolor" : [ 0.049247920513153, 0.058372475206852, 0.068464912474155, 1.0 ],
						"elementcolor" : [ 0.57438737154007, 0.665937542915344, 0.915809035301208, 1.0 ],
						"fontname" : "Lato",
						"globalpatchername" : "",
						"locked_bgcolor" : [ 0.049247920513153, 0.058372475206852, 0.068464912474155, 1.0 ],
						"patchlinecolor" : [ 0.086274509803922, 0.266666666666667, 0.345098039215686, 1.0 ],
						"selectioncolor" : [ 0.45281594991684, 0.528640389442444, 0.598021566867828, 1.0 ],
						"style" : "sigv.js",
						"tags" : "",
						"textcolor" : [ 0.6, 0.772549019607843, 1.0, 1.0 ],
						"textcolor_inverse" : [ 0.67843137254902, 0.713725490196078, 0.76078431372549, 1.0 ]
					}
,
					"text" : "p cappy"
				}

			}
, 			{
				"box" : 				{
					"id" : "obj-2",
					"maxclass" : "newobj",
					"numinlets" : 0,
					"numoutlets" : 1,
					"outlettype" : [ "" ],
					"patching_rect" : [ 104.0, 13.0, 47.0, 23.0 ],
					"text" : "r metro"
				}

			}
, 			{
				"box" : 				{
					"id" : "obj-6",
					"maxclass" : "newobj",
					"numinlets" : 1,
					"numoutlets" : 2,
					"outlettype" : [ "jit_gl_texture", "" ],
					"patching_rect" : [ 23.0, 106.0, 209.0, 23.0 ],
					"text" : "jit.qt.movie monde @output_texture 1"
				}

			}
, 			{
				"box" : 				{
					"id" : "obj-1",
					"maxclass" : "newobj",
					"numinlets" : 2,
					"numoutlets" : 2,
					"outlettype" : [ "", "" ],
					"patching_rect" : [ 61.0, 165.0, 78.0, 23.0 ],
					"text" : "route texture"
				}

			}
, 			{
				"box" : 				{
					"id" : "obj-5",
					"maxclass" : "newobj",
					"numinlets" : 1,
					"numoutlets" : 2,
					"outlettype" : [ "jit_gl_texture", "" ],
					"patching_rect" : [ 23.0, 229.0, 222.0, 23.0 ],
					"text" : "jit.gl.texture @name tex0 @adapt 0"
				}

			}
, 			{
				"box" : 				{
					"id" : "obj-4",
					"maxclass" : "newobj",
					"numinlets" : 2,
					"numoutlets" : 2,
					"outlettype" : [ "", "" ],
					"patching_rect" : [ 23.0, 40.0, 59.0, 23.0 ],
					"text" : "route fpic"
				}

			}
, 			{
				"box" : 				{
					"id" : "obj-3",
					"maxclass" : "newobj",
					"numinlets" : 0,
					"numoutlets" : 1,
					"outlettype" : [ "" ],
					"patching_rect" : [ 23.0, 13.0, 41.0, 23.0 ],
					"text" : "r coda"
				}

			}
 ],
		"lines" : [ 			{
				"patchline" : 				{
					"destination" : [ "obj-5", 0 ],
					"midpoints" : [ 70.5, 215.5, 32.5, 215.5 ],
					"source" : [ "obj-1", 0 ]
				}

			}
, 			{
				"patchline" : 				{
					"destination" : [ "obj-6", 0 ],
					"midpoints" : [ 113.5, 76.5, 32.5, 76.5 ],
					"source" : [ "obj-2", 0 ]
				}

			}
, 			{
				"patchline" : 				{
					"destination" : [ "obj-4", 0 ],
					"source" : [ "obj-3", 0 ]
				}

			}
, 			{
				"patchline" : 				{
					"destination" : [ "obj-1", 0 ],
					"midpoints" : [ 32.5, 143.0, 70.5, 143.0 ],
					"order" : 1,
					"source" : [ "obj-4", 0 ]
				}

			}
, 			{
				"patchline" : 				{
					"destination" : [ "obj-6", 0 ],
					"order" : 2,
					"source" : [ "obj-4", 0 ]
				}

			}
, 			{
				"patchline" : 				{
					"destination" : [ "obj-7", 0 ],
					"midpoints" : [ 32.5, 69.0, 165.5, 69.0 ],
					"order" : 0,
					"source" : [ "obj-4", 0 ]
				}

			}
, 			{
				"patchline" : 				{
					"destination" : [ "obj-5", 0 ],
					"source" : [ "obj-6", 0 ]
				}

			}
, 			{
				"patchline" : 				{
					"destination" : [ "obj-5", 0 ],
					"source" : [ "obj-7", 0 ]
				}

			}
 ],
		"dependency_cache" : [  ],
		"autosave" : 0,
		"styles" : [ 			{
				"name" : "AudioStatus_Menu",
				"default" : 				{
					"bgfillcolor" : 					{
						"angle" : 270.0,
						"autogradient" : 0,
						"color" : [ 0.294118, 0.313726, 0.337255, 1 ],
						"color1" : [ 0.454902, 0.462745, 0.482353, 0.0 ],
						"color2" : [ 0.290196, 0.309804, 0.301961, 1.0 ],
						"proportion" : 0.39,
						"type" : "color"
					}

				}
,
				"parentstyle" : "",
				"multi" : 0
			}
, 			{
				"name" : "Jamoma_highlighted_orange",
				"default" : 				{
					"accentcolor" : [ 1.0, 0.5, 0.0, 1.0 ]
				}
,
				"parentstyle" : "",
				"multi" : 0
			}
, 			{
				"name" : "dvnt2",
				"default" : 				{
					"bgcolor" : [ 1.0, 1.0, 1.0, 1.0 ],
					"color" : [ 0.0, 0.0, 0.0, 1.0 ],
					"elementcolor" : [ 0.681193, 0.750541, 0.758255, 1.0 ],
					"textcolor_inverse" : [ 0.0, 0.0, 0.0, 1.0 ]
				}
,
				"parentstyle" : "",
				"multi" : 0
			}
, 			{
				"name" : "dvnt3",
				"parentstyle" : "",
				"multi" : 0
			}
, 			{
				"name" : "jpatcher001",
				"parentstyle" : "",
				"multi" : 0
			}
, 			{
				"name" : "myrDict",
				"default" : 				{
					"accentcolor" : [ 0.011765, 0.396078, 0.752941, 1.0 ]
				}
,
				"parentstyle" : "",
				"multi" : 0
			}
, 			{
				"name" : "myrInit",
				"default" : 				{
					"accentcolor" : [ 0.0, 1.0, 0.501961, 1.0 ]
				}
,
				"parentstyle" : "",
				"multi" : 0
			}
, 			{
				"name" : "myrLiveObject",
				"default" : 				{
					"accentcolor" : [ 0.960784, 0.827451, 0.156863, 1.0 ]
				}
,
				"parentstyle" : "",
				"multi" : 0
			}
, 			{
				"name" : "myrPattr",
				"default" : 				{
					"accentcolor" : [ 0.945098, 0.913725, 0.407843, 1.0 ],
					"fontface" : [ 0 ],
					"fontname" : [ "Arial" ],
					"fontsize" : [ 12.0 ]
				}
,
				"parentstyle" : "",
				"multi" : 0
			}
, 			{
				"name" : "myrReceive",
				"default" : 				{
					"accentcolor" : [ 0.701961, 0.415686, 0.886275, 1.0 ]
				}
,
				"parentstyle" : "",
				"multi" : 0
			}
, 			{
				"name" : "myrSend",
				"default" : 				{
					"accentcolor" : [ 0.466667, 0.254902, 0.607843, 1.0 ]
				}
,
				"parentstyle" : "",
				"multi" : 0
			}
, 			{
				"name" : "myrSubpatch",
				"default" : 				{
					"accentcolor" : [ 0.082353, 0.431373, 0.411765, 1.0 ],
					"fontname" : [ "Arial" ],
					"fontsize" : [ 12.0 ]
				}
,
				"parentstyle" : "",
				"multi" : 0
			}
, 			{
				"name" : "myrValue",
				"default" : 				{
					"accentcolor" : [ 0.317647, 0.654902, 0.976471, 1.0 ]
				}
,
				"parentstyle" : "",
				"multi" : 0
			}
, 			{
				"name" : "newobjBlue-1",
				"default" : 				{
					"accentcolor" : [ 0.317647, 0.654902, 0.976471, 1.0 ]
				}
,
				"parentstyle" : "",
				"multi" : 0
			}
, 			{
				"name" : "newobjGreen-1",
				"default" : 				{
					"accentcolor" : [ 0.0, 0.533333, 0.168627, 1.0 ]
				}
,
				"parentstyle" : "",
				"multi" : 0
			}
, 			{
				"name" : "newobjYellow-1",
				"default" : 				{
					"accentcolor" : [ 0.82517, 0.78181, 0.059545, 1.0 ],
					"fontsize" : [ 12.059008 ]
				}
,
				"parentstyle" : "",
				"multi" : 0
			}
, 			{
				"name" : "sigv.js",
				"default" : 				{
					"accentcolor" : [ 0.07799056917429, 0.098447218537331, 0.10713404417038, 1.0 ],
					"bgcolor" : [ 0.070588235294118, 0.105882352941176, 0.164705882352941, 1.0 ],
					"bgfillcolor" : 					{
						"color" : [ 0.2, 0.2, 0.2, 1.0 ],
						"color1" : [ 0.07799056917429, 0.098447218537331, 0.10713404417038, 1.0 ],
						"color2" : [ 0.07058823529, 0.1058823529, 0.1647058824, 1.0 ],
						"type" : "gradient"
					}
,
					"clearcolor" : [ 0.07058823529, 0.1058823529, 0.1647058824, 1.0 ],
					"color" : [ 0.0, 0.431372549019608, 1.0, 1.0 ],
					"editing_bgcolor" : [ 0.049247920513153, 0.058372475206852, 0.068464912474155, 1.0 ],
					"elementcolor" : [ 0.57438737154007, 0.665937542915344, 0.915809035301208, 1.0 ],
					"fontname" : [ "Lato" ],
					"locked_bgcolor" : [ 0.049247920513153, 0.058372475206852, 0.068464912474155, 1.0 ],
					"patchlinecolor" : [ 0.086274509803922, 0.266666666666667, 0.345098039215686, 1.0 ],
					"selectioncolor" : [ 0.45281594991684, 0.528640389442444, 0.598021566867828, 1.0 ],
					"textcolor" : [ 0.6, 0.772549019607843, 1.0, 1.0 ],
					"textcolor_inverse" : [ 0.67843137254902, 0.713725490196078, 0.76078431372549, 1.0 ]
				}
,
				"parentstyle" : "",
				"multi" : 0
			}
 ],
		"bgfillcolor_type" : "gradient",
		"bgfillcolor_color1" : [ 0.07799056917429, 0.098447218537331, 0.10713404417038, 1.0 ],
		"bgfillcolor_color2" : [ 0.07058823529, 0.1058823529, 0.1647058824, 1.0 ],
		"bgfillcolor_color" : [ 0.2, 0.2, 0.2, 1.0 ]
	}

}
